<?xml version="1.0" encoding="UTF-8" standalone="no"?>
<!-- Created with Inkscape (http://www.inkscape.org/) -->

<svg
   xmlns:dc="http://purl.org/dc/elements/1.1/"
   xmlns:cc="http://creativecommons.org/ns#"
   xmlns:rdf="http://www.w3.org/1999/02/22-rdf-syntax-ns#"
   xmlns:svg="http://www.w3.org/2000/svg"
   xmlns="http://www.w3.org/2000/svg"
   xmlns:sodipodi="http://sodipodi.sourceforge.net/DTD/sodipodi-0.dtd"
   xmlns:inkscape="http://www.inkscape.org/namespaces/inkscape"
   version="1.1"
   id="svg422"
   width="1152"
   height="1152"
   viewBox="0 0 1152 1152"
   sodipodi:docname="Farmhouse.svg"
   inkscape:version="0.92.1 r15371">
  <metadata
     id="metadata428">
    <rdf:RDF>
      <cc:Work
         rdf:about="">
        <dc:format>image/svg+xml</dc:format>
        <dc:type
           rdf:resource="http://purl.org/dc/dcmitype/StillImage" />
        <dc:title></dc:title>
      </cc:Work>
    </rdf:RDF>
  </metadata>
  <defs
     id="defs426" />
  <sodipodi:namedview
     pagecolor="#ffffff"
     bordercolor="#666666"
     borderopacity="1"
     objecttolerance="10"
     gridtolerance="10"
     guidetolerance="10"
     inkscape:pageopacity="0"
     inkscape:pageshadow="2"
     inkscape:window-width="1920"
     inkscape:window-height="1012"
     id="namedview424"
     showgrid="false"
     inkscape:zoom="0.70710678"
     inkscape:cx="576"
     inkscape:cy="576"
     inkscape:window-x="-8"
     inkscape:window-y="-8"
     inkscape:window-maximized="1"
     inkscape:current-layer="svg422" />
  <g
     inkscape:groupmode="layer"
     id="layer15"
     inkscape:label="Layer 1">
    <path
       style="fill:#000000;stroke-width:0.31999999"
       d="m 619.36234,429.3425 c -11.36419,-2.01955 -20.06656,-6.44762 -27.69164,-14.09053 -7.13207,-7.14874 -11.47543,-15.12237 -13.69725,-25.14578 -2.18928,-9.8766 -1.92339,-18.82237 0.80246,-26.99773 1.25981,-3.77845 3.9584,-9.04845 6.44608,-12.58841 2.49808,-3.55476 9.93719,-11.02043 14.23325,-14.2841 10.38166,-7.88678 25.27632,-15.11966 36.36042,-17.65672 4.28566,-0.98095 4.852,-1.62679 4.55081,-5.18964 -0.11001,-1.30159 0.0154,-7.50367 0.27891,-13.7824 0.26343,-6.27872 0.76381,-18.27366 1.11197,-26.65541 0.92071,-22.1655 2.03671,-30.61612 5.67872,-43.00046 0.91591,-3.11444 1.15901,-4.54731 1.28663,-7.58342 0.0865,-2.05889 0.0676,-4.10082 -0.042,-4.53763 -0.49427,-1.96935 -2.11097,-2.29516 -4.76899,-0.96108 -4.73437,2.37621 -9.50435,6.41549 -12.79587,10.8357 -7.48759,10.05519 -11.17856,27.25599 -9.85498,45.92644 0.69751,9.83945 0.73818,12.49293 0.25399,16.57371 -0.53444,4.50434 -0.72714,4.83753 -3.70036,6.39773 -2.56726,1.34718 -4.76185,1.78203 -8.01414,1.58798 -7.08461,-0.42272 -11.73744,-4.53789 -14.38122,-12.71942 -1.05507,-3.26511 -1.27257,-5.30158 -2.20454,-20.64 -0.74086,-12.19379 -0.87501,-16.7533 -0.87536,-29.76001 0,-15.05228 0.16957,-19.04157 1.28186,-30.08 2.00259,-19.87367 6.7703,-39.73438 13.09286,-54.54034 0.94858,-2.22135 2.02723,-4.8475 2.39706,-5.8359 1.93657,-5.17603 6.51843,-9.94561 12.81654,-13.34173 5.96122,-3.21443 10.08749,-2.85248 13.83152,1.21329 3.05632,3.31897 5.91363,9.27252 7.15318,14.90468 0.90471,4.11059 0.77136,10.49426 -0.32752,15.68 -1.95971,9.24808 -5.06486,18.44362 -10.94902,32.42422 -4.4689,10.61801 -5.85011,14.15318 -8.56653,21.92579 -2.36457,6.76578 -3.20915,10.44651 -2.49792,10.88607 0.18199,0.11247 1.66931,-1.55964 3.30519,-3.71579 4.33305,-5.71117 10.59619,-13.08003 12.8702,-15.14238 4.35248,-3.94734 10.47546,-5.71964 17.17709,-4.97195 4.15011,0.46303 5.77021,1.07933 7.86141,2.99059 3.41427,3.12043 5.80301,9.83391 6.12122,17.20345 0.19667,4.55465 -0.1441,7.86847 -2.30343,22.4 -1.40579,9.46048 -3.59696,26.42219 -4.38185,33.92001 -0.25808,2.46508 -0.41741,8.11358 -0.41527,14.72 0.004,13.65612 0.43466,16.71913 2.54224,18.10007 0.88723,0.58133 2.88208,0.87294 10.79987,1.57877 20.12701,1.7942 35.3786,6.33258 49.54967,14.74439 9.20406,5.46343 16.08813,12.24295 19.81917,19.51815 4.34803,8.47831 5.04099,18.73066 1.89977,28.10663 -3.41811,10.20235 -9.75757,16.57911 -18.69421,18.80415 -2.49404,0.62099 -3.69478,0.71475 -8.96,0.69981 -8.35852,-0.0237 -14.60569,-0.85408 -21.76,-2.89221 -17.73987,-5.05375 -31.58316,-17.09989 -40.93388,-35.61976 -2.80791,-5.56127 -4.73818,-10.29784 -7.99776,-19.62522 -3.4416,-9.84825 -3.67293,-10.23593 -6.07866,-10.18764 -3.05718,0.0614 -13.22688,4.06746 -20.02806,7.88954 -9.43972,5.30487 -20.72644,14.14049 -24.62704,19.27884 -2.09332,2.75756 -4.28551,7.20297 -5.17028,10.48448 -0.92924,3.44651 -1.02374,10.60478 -0.19116,14.4825 3.91507,18.23488 16.24608,31.19168 34.07395,35.80316 9.30928,2.40804 15.56653,-1.55718 17.18112,-10.88758 0.59373,-3.43114 0.67881,-13.62415 0.12745,-15.27033 -0.71216,-2.1262 -2.30435,-3.09281 -6.03568,-3.66421 -1.97251,-0.30206 -5.26163,-1.33099 -7.26342,-2.2722 -2.87827,-1.35334 -3.85322,-4.06418 -2.28858,-6.36338 0.92912,-1.36532 2.16714,-1.97364 5.32874,-2.61838 4.62755,-0.94369 9.8209,0.57359 12.54118,3.664 1.96861,2.23648 5.05421,9.07317 6.61031,14.64642 1.18153,4.23171 1.37033,9.61008 0.46957,13.37642 -1.29578,5.41801 -3.83389,9.76524 -8.08288,13.84435 -2.87709,2.76208 -4.65661,3.99558 -8.05946,5.58665 -5.09907,2.38416 -11.25802,3.30474 -16.21546,2.42375 z m 105.06253,-48.66965 c 2.5921,-0.67515 4.23018,-1.586 6.19607,-3.44523 6.539,-6.18432 5.95065,-18.45482 -1.2633,-26.34806 -2.73414,-2.99158 -9.26384,-7.64085 -16.10355,-11.46605 -9.19363,-5.14167 -21.20442,-9.27002 -32.61175,-11.20933 -4.13673,-0.70326 -10.88425,-1.45285 -13.07804,-1.45285 h -1.88196 l 0.18445,0.9222 c 0.46368,2.31841 3.37651,9.6487 5.80071,14.5978 6.98876,14.26786 17.18742,25.56011 29.77606,32.96892 8.25978,4.86112 17.12739,6.95736 22.98131,5.4326 z M 622.96692,198.57059 c 4.82531,-10.48147 8.64307,-21.03476 10.6233,-29.36565 1.97097,-8.29187 2.25347,-10.58068 2.23824,-18.13362 -0.0131,-6.57295 -0.0531,-7.00853 -0.8937,-9.76 -1,-3.27333 -2.21222,-5.42294 -3.48522,-6.18026 -0.85299,-0.50746 -0.89884,-0.49405 -2.02025,0.59051 -1.56717,1.51568 -3.27776,4.1572 -4.35975,6.73239 -1.68905,4.02012 -4.38646,19.25099 -5.05043,28.51733 -0.37094,5.17707 -0.46777,32.02235 -0.11677,32.37337 0.50308,0.50306 0.97015,-0.22456 3.06458,-4.77407 z m 229.15469,148.66754 c -4.26388,-1.11788 -7.83776,-3.25379 -11.75453,-7.02502 -6.69194,-6.44329 -9.54519,-14.50079 -8.55098,-24.14777 1.05559,-10.24242 5.36183,-19.73329 14.40083,-31.73907 1.97658,-2.62535 2.57578,-3.64981 2.44333,-4.1775 -0.16227,-0.6465 -10.60483,-22.35293 -13.50381,-28.06966 l -1.27395,-2.51221 -0.73923,3.31221 c -0.95901,4.29697 -4.95648,18.29889 -7.0777,24.79109 -2.55862,7.83088 -4.95856,12.16501 -8.68313,15.68114 -3.7744,3.56317 -6.4585,3.97935 -12.7401,1.97537 -1.144,-0.36496 -2.58771,-0.91818 -3.20825,-1.22937 -2.14023,-1.07331 -5.08512,-3.54273 -6.58468,-5.5215 -2.76841,-3.65318 -4.05283,-7.22207 -6.53008,-18.14451 -0.53888,-2.376 -1.06025,-4.536 -1.15865,-4.8 -0.0984,-0.264 -0.94391,2.184 -1.87898,5.44 -2.75776,9.60275 -5.33859,15.61128 -8.72806,20.32 -2.96544,4.1197 -6.19315,5.59116 -11.22925,5.11924 -3.78701,-0.35487 -6.94656,-1.29485 -10.76205,-3.20175 -8.66476,-4.33044 -14.4774,-11.86112 -16.54358,-21.43334 -0.77693,-3.59948 -1.14621,-15.69661 -0.61987,-20.30668 0.18979,-1.66238 0.28601,-3.08157 0.21382,-3.15376 -0.0722,-0.0722 -0.96803,0.51116 -1.99078,1.29631 -1.02279,0.78516 -2.89159,2.08771 -4.1529,2.89457 -2.27193,1.45333 -2.29677,1.48436 -2.65952,3.32621 -1.95133,9.9076 -5.27437,17.97528 -10.90358,26.47162 -5.93507,8.95795 -11.34058,13.02362 -19.57008,14.71934 -9.36397,1.92948 -18.70903,-2.13159 -22.44839,-9.75539 -3.36716,-6.86487 -3.94496,-17.84148 -1.4439,-27.4293 0.5376,-2.06089 1.05245,-4.06795 1.1441,-4.46014 0.10828,-0.46334 -0.33895,-1.69607 -1.27703,-3.52 -5.1928,-10.09649 -4.19891,-19.8579 2.80275,-27.52693 5.40772,-5.92313 12.88116,-10.37375 20.89834,-12.44543 2.76822,-0.71533 3.58611,-0.78881 7.43062,-0.66756 3.62445,0.11432 4.73216,0.27607 6.88,1.00464 4.74727,1.61033 8.92423,4.49066 11.54804,7.9632 1.90585,2.52235 2.11328,3.03267 3.79689,9.34162 1.29495,4.85249 1.7384,7.34456 2.34013,13.1502 l 0.23494,2.26668 3.61796,-2.27841 c 5.67251,-3.57224 5.30236,-3.08963 6.76118,-8.81495 1.34909,-5.29471 5.06691,-17.36483 5.6543,-18.35701 0.33412,-0.5644 0.55258,-0.51204 4,0.95891 4.09978,1.74928 6.97424,3.53357 8.10311,5.0299 1.46876,1.94689 1.51193,2.74158 0.76768,14.1282 -0.93863,14.36052 -1.01031,31.62249 -0.15348,36.96001 0.7768,4.83889 1.87428,9.10066 2.9042,11.27776 1.16582,2.46434 2.9543,4.72224 3.74048,4.72224 1.45433,0 5.39235,-4.98372 7.81724,-9.89298 3.92714,-7.95062 6.58308,-16.50088 10.53975,-33.93075 2.17891,-9.59852 5.07245,-20.18886 6.08454,-22.26949 0.43162,-0.88727 1.42666,-2.28312 2.21117,-3.1019 2.64346,-2.75884 5.41546,-3.60532 8.6896,-2.6535 4.45395,1.2948 6.7352,3.28439 7.82998,6.82894 0.78266,2.53396 0.7826,3.25236 0,14.13967 -2.26908,31.50476 -2.55148,40.10991 -1.58886,48.41892 0.43626,3.76567 1.72688,6.26264 3.25158,6.29091 0.71735,0.0133 2.61197,-1.66504 3.75495,-3.32627 1.49033,-2.16613 6.32733,-13.95309 8.67664,-21.14355 2.03225,-6.22014 4.49011,-15.82024 6.08963,-23.78555 l 0.66381,-3.30554 -1.60688,-3.57446 c -3.20877,-7.13785 -5.23341,-13.0591 -6.49159,-18.98526 -1.04313,-4.91313 -1.05632,-11.97719 -0.0291,-15.55257 1.02868,-3.58024 1.92842,-5.31119 3.66797,-7.05641 4.82803,-4.84382 11.37491,-4.01163 13.78039,1.75163 0.26899,0.64452 0.73817,2.29133 1.04256,3.65958 0.69036,3.10305 0.49651,10.42746 -0.45946,17.36057 -0.34826,2.5256 -0.54758,4.8296 -0.44294,5.12 0.10464,0.2904 1.43833,2.112 2.96371,4.048 9.66441,12.26587 17.21536,23.72566 23.55504,35.74867 1.51133,2.86624 2.79369,5.25897 2.84966,5.31719 0.0559,0.0582 1.95011,-0.49944 4.20922,-1.23923 2.2591,-0.7398 5.69149,-1.66752 7.62749,-2.06161 l 3.52,-0.71653 0.0778,-1.56424 c 0.1945,-3.91035 0.80109,-9.19531 1.39158,-12.12425 2.27709,-11.29458 8.30423,-22.02677 15.3529,-27.33811 5.89581,-4.44263 12.21715,-6.02117 20.63814,-5.15367 10.44192,1.07568 14.94983,4.9655 15.41744,13.30354 0.46295,8.25476 -4.80166,17.36392 -12.07789,20.89787 -3.11414,1.51249 -6.19171,2.12092 -9.11999,1.80299 -1.75933,-0.19101 -6.93712,-1.20449 -8.1977,-1.60458 -1.26947,-0.40292 -2.30982,11.22411 -1.59363,17.8113 0.46233,4.25266 1.3479,7.48772 2.81277,10.27539 3.07491,5.85157 6.70902,7.62666 14.68163,7.17132 8.05958,-0.46032 15.26531,-3.47148 25.24089,-10.5478 22.10032,-15.67714 35.50653,-41.13265 37.93203,-72.02472 0.42071,-5.35817 0.41508,-21.07673 -0.009,-25.79353 -0.9288,-10.32495 -3.50828,-19.36627 -8.03404,-28.16 -3.62941,-7.05213 -8.88391,-13.81841 -13.7672,-17.72826 -11.90464,-9.53152 -27.96679,-9.0728 -39.1162,1.11712 -3.6647,3.34933 -6.69622,8.1722 -7.82643,12.45114 -2.33526,8.84124 0.0266,18.71153 6.19661,25.89543 3.07498,3.58029 5.70707,4.99945 9.93536,5.35687 2.73782,0.23143 4.50672,-0.16954 6.38512,-1.44734 1.5751,-1.07149 1.77232,-2.19796 0.70816,-4.04496 -0.6776,-1.17607 -0.83366,-1.27148 -1.92234,-1.17502 -2.55292,0.22617 -4.80662,-1.0771 -6.19552,-3.58276 -0.80019,-1.44359 -0.9103,-1.9712 -0.9103,-4.36222 0,-2.2791 0.1385,-3.01547 0.85446,-4.54288 1.80013,-3.84037 5.58727,-6.37937 10.41904,-6.98523 5.45159,-0.68357 9.24704,1.40595 10.98336,6.04668 1.36436,3.64649 1.65632,5.69458 1.48858,10.44143 -0.17843,5.04999 -0.78842,7.69616 -2.69235,11.68 -1.49712,3.13257 -5.0329,6.72342 -8.25309,8.38165 -8.92541,4.59612 -20.6568,4.55463 -28.54589,-0.10095 -2.36406,-1.3951 -6.64188,-5.62418 -8.37612,-8.2807 -1.65271,-2.53163 -4.19044,-7.73598 -5.14922,-10.56 -1.49821,-4.41275 -1.96608,-6.86134 -2.14013,-11.2 -0.1464,-3.64983 -0.0656,-4.84085 0.5209,-7.67751 1.46214,-7.07196 4.48189,-12.41289 10.56374,-18.68377 5.92938,-6.11363 11.08957,-9.93885 18.16742,-13.4674 7.381,-3.67967 12.46733,-4.81471 20.3993,-4.5522 5.30934,0.17571 8.53952,0.70619 14.11555,2.31816 8.69664,2.5141 17.54179,8.765 23.30147,16.46725 8.79673,11.76368 13.35832,23.20411 15.03652,37.71155 1.675,14.47912 1.2546,31.76292 -1.1102,45.64392 -4.05949,23.82988 -14.58731,44.47988 -30.58923,60.00001 -9.5583,9.27053 -19.20915,15.16237 -31.47411,19.21496 -6.33754,2.09405 -10.59062,2.88427 -16.67184,3.09761 -7.73049,0.27121 -12.83085,-0.73386 -19.0536,-3.75469 -9.20617,-4.46911 -16.02752,-12.47093 -18.47325,-21.67011 -0.73529,-2.76573 -0.76035,-2.80622 -1.67388,-2.70405 -2.20656,0.24679 -8.73005,2.17241 -11.10877,3.2791 -1.03047,0.47943 -1.07543,0.17518 0.71699,4.85265 2.49939,6.52242 4.96602,16.62754 6.15229,25.20453 0.64179,4.64043 0.54653,15.42138 -0.17114,19.36 -0.76349,4.19026 -2.70313,10.06181 -4.41385,13.3612 -1.83255,3.53437 -5.61002,7.40566 -8.61117,8.82502 -4.26026,2.01482 -9.4545,2.51461 -13.93251,1.34058 z m -0.22317,-15.15307 c 4.22054,-2.18253 5.80521,-6.43629 5.44409,-14.61373 -0.20857,-4.72267 -1.06739,-10.30657 -2.31318,-15.04 -1.17792,-4.47553 -4.0617,-13.44 -4.32352,-13.44 -0.33501,0 -2.22966,2.39176 -4.05587,5.12 -2.00935,3.0019 -4.23194,7.42622 -5.30487,10.56 -1.89107,5.52342 -2.8582,13.35825 -2.15996,17.49797 0.74265,4.40288 3.21852,8.35552 6.17379,9.85621 1.4232,0.72272 1.98243,0.83284 3.61789,0.71245 1.06393,-0.0783 2.37868,-0.37213 2.92163,-0.6529 z M 705.65511,286.72578 c 4.55543,-2.20525 9.86765,-10.32955 14.76103,-22.57501 1.0639,-2.66231 2.08179,-5.37456 2.26198,-6.02723 0.29258,-1.05954 0.26963,-1.16232 -0.21405,-0.95946 -1.31549,0.55173 -4.64291,1.54283 -7.74173,2.30594 -3.10076,0.76359 -3.96486,0.83213 -11.2,0.88833 l -7.84,0.0609 -0.73776,3.48604 c -1.01043,4.77461 -1.29942,12.52326 -0.5806,15.56889 0.88697,3.75807 2.43523,6.12164 4.83836,7.38631 1.43594,0.75567 4.75671,0.68634 6.45277,-0.13471 z m -1.20873,-34.70747 c 6.33206,-0.79805 10.63257,-1.7745 17.1215,-3.88749 l 2.52554,-0.82239 -0.19172,-2.91855 c -0.35052,-5.33521 -1.29632,-8.7024 -4.0568,-14.44286 -2.82502,-5.87459 -5.3775,-8.32059 -10.19555,-9.77015 -1.97977,-0.59564 -2.84269,-0.68057 -5.44,-0.53545 -5.68803,0.3178 -10.34464,2.20166 -13.68176,5.53502 -2.81942,2.81624 -3.9967,5.35754 -4.20931,9.08626 -0.0906,1.58874 -0.0598,2.88862 0.0684,2.88862 0.12823,0 1.02007,-0.7014 1.98192,-1.55867 0.96183,-0.85727 2.4249,-1.92485 3.25127,-2.3724 1.40969,-0.76347 13.62611,-5.02893 14.40304,-5.02893 0.19632,0 0.51168,0.28912 0.7008,0.64249 0.28205,0.52705 0.004,1.40384 -1.55043,4.88 -3.05319,6.83011 -7.09092,17.47636 -7.09092,18.69661 0,0.37091 0.2672,0.436 1.2,0.29233 0.66,-0.10166 2.98381,-0.40966 5.16404,-0.68444 z m 216.00889,-3.35868 c 1.39753,-0.66113 2.74051,-1.67116 4.20662,-3.16368 4.1584,-4.23331 6.1105,-10.08755 4.64403,-13.9274 -0.68304,-1.78852 -2.64361,-3.58944 -4.23206,-3.88744 -2.45482,-0.46052 -5.69424,1.09358 -7.90342,3.79166 -2.55418,3.11937 -6.29997,9.78774 -8.17677,14.55654 l -0.66042,1.67799 1.19456,0.52003 c 2.43146,1.05851 3.81639,1.36169 6.31453,1.38234 2.21235,0.0183 2.83879,-0.11074 4.61293,-0.95004 z m -86.40096,-39.88178 c 0.024,-4.7294 -0.0566,-5.69102 -0.5808,-6.9138 -0.81677,-1.90542 -1.5297,-2.15372 -2.12096,-0.73864 -0.78493,1.87857 -1.14515,4.0732 -1.14061,6.94857 0.005,3.22643 0.66938,5.47754 2.31661,7.85106 l 1.07315,1.54628 0.21229,-1.6 c 0.11677,-0.88 0.2249,-4.07206 0.24032,-7.09347 z M 574.24235,319.79704 c -1.90512,-0.72936 -6.65146,-5.34989 -8.76237,-8.53013 -3.99005,-6.01126 -6.67655,-16.248 -7.57779,-28.87465 -0.74909,-10.49458 0.0588,-17.32183 4.84224,-40.92094 1.79113,-8.83665 2.5423,-13.19617 2.42598,-14.0795 -0.19309,-1.46621 -1.39827,-2.7205 -2.61402,-2.7205 -1.61337,0 -6.00256,5.80099 -8.05097,10.64056 -1.58266,3.73921 -7.19235,20.66617 -13.21613,39.87898 -2.83485,9.04175 -5.42294,16.96175 -5.75133,17.6 -1.68464,3.27427 -3.52966,4.84047 -5.70227,4.84047 -0.49894,0 -2.07968,-0.56701 -3.51274,-1.26002 l -2.60556,-1.26001 -0.98682,-3.13999 c -2.37846,-7.56803 -3.20822,-14.21609 -3.20822,-25.70416 0,-11.2803 0.89372,-19.74769 3.36409,-31.87289 1.39075,-6.82601 1.40586,-7.56221 0.18051,-8.78755 -0.51446,-0.51446 -1.19846,-0.93485 -1.52,-0.93419 -2.28604,0.005 -6.23152,5.7693 -9.50505,13.88755 -0.62234,1.54338 -4.53043,13.48579 -8.68464,26.5387 -4.15421,13.0529 -7.83747,24.61219 -8.18506,25.6873 -1.18425,3.66327 -3.39017,6.29746 -5.62467,6.71665 -3.58581,0.67271 -9.71119,-3.72315 -12.25939,-8.7979 -0.97607,-1.94385 -2.15041,-6.75388 -2.62551,-10.7539 -0.21884,-1.8425 -0.48763,-3.24415 -0.59731,-3.11479 -0.10968,0.12936 -0.52939,1.1712 -0.93269,2.3152 -2.34692,6.65725 -7.3594,16.44948 -10.81099,21.12 -2.44008,3.30179 -7.21208,7.91361 -9.69573,9.37026 -3.34952,1.96448 -5.93061,2.62794 -10.22356,2.62794 -4.24315,0 -7.04965,-0.70113 -10.56,-2.63816 -2.65739,-1.46634 -6.28339,-5.08836 -7.76858,-7.76004 -1.52801,-2.74869 -3.25195,-8.03217 -3.91546,-12 -0.72568,-4.33959 -1.10242,-13.31177 -0.78318,-18.65194 0.2022,-3.38228 0.52467,-5.39732 1.4069,-8.79125 1.48683,-5.71978 4.66964,-21.8364 4.88123,-24.71682 0.14603,-1.98797 0.0787,-2.36553 -0.59808,-3.35577 -0.41945,-0.61368 -1.15729,-1.25457 -1.63964,-1.4242 -1.4174,-0.49848 -1.95107,0.39698 -2.94406,4.93997 -0.48087,2.2 -1.35614,5.75922 -1.94504,7.90938 -0.5889,2.15016 -1.44738,5.60616 -1.90773,7.68 -1.26382,5.69334 -5.42974,20.7169 -7.25264,26.15524 -2.49469,7.44248 -5.0093,12.01304 -8.55497,15.54953 -2.56798,2.56133 -4.31432,3.31312 -7.69875,3.31426 -2.2126,6.4e-4 -3.23443,-0.18039 -5.47768,-0.97103 -6.49466,-2.28907 -11.01096,-6.92878 -13.19676,-13.55737 -0.43527,-1.32 -1.45779,-5.424 -2.27225,-9.12 -0.81446,-3.696 -1.56565,-7.00129 -1.6693,-7.34509 -0.11931,-0.39573 -0.65153,1.07194 -1.45052,4 -2.10958,7.73097 -5.91705,16.979 -8.7607,21.27901 -1.57603,2.38318 -3.27313,3.96954 -5.25279,4.90998 -1.56195,0.74201 -2.12009,0.83118 -4.96,0.79242 -7.7282,-0.10549 -14.96086,-3.37536 -20.75059,-9.38128 -4.15817,-4.31345 -6.82261,-9.37586 -8.09481,-15.38007 -0.70368,-3.32107 -0.79987,-13.17175 -0.16712,-17.11497 2.55553,-15.92575 11.26855,-29.39102 21.76033,-33.62884 3.33233,-1.34599 6.25077,-1.82097 11.41219,-1.85734 4.18718,-0.0295 5.10641,0.0614 7.2,0.71205 4.12592,1.28225 6.52546,2.94221 9.65374,6.67831 1.08533,1.29621 2.06996,2.24403 2.18805,2.10628 0.1181,-0.13776 0.76122,-1.83447 1.42916,-3.77047 1.47436,-4.27336 2.3908,-6.1445 3.52643,-7.2 0.79166,-0.7358 1.07423,-0.79413 3.52117,-0.72692 4.73926,0.13018 8.22775,2.12241 9.79686,5.59487 1.032,2.28385 0.99903,4.15699 -0.49448,28.09205 -1.05532,16.91277 -1.18664,20.41171 -1.03883,27.68001 0.14931,7.3419 0.25093,8.58333 0.86442,10.56 1.40595,4.52992 3.04115,4.86509 5.84405,1.19787 2.81834,-3.6874 2.36911,-2.5936 9.23161,-22.47787 3.16354,-9.16648 4.78509,-14.49351 6.86726,-22.56001 1.49919,-5.808 2.93387,-11.27013 3.18818,-12.13808 0.25431,-0.86794 0.46238,-1.76649 0.46238,-1.99679 0,-0.23028 -1.332,-1.08747 -2.96,-1.90485 -4.06057,-2.03871 -6.40196,-3.67584 -9.0632,-6.33708 -3.85246,-3.85246 -6.13801,-7.7918 -7.563,-13.03547 -0.60958,-2.24314 -0.72142,-3.43168 -0.7027,-7.46773 0.0196,-4.2349 0.12312,-5.13906 0.87896,-7.68 1.31903,-4.43425 3.70566,-9.01976 5.80454,-11.15244 1.97098,-2.00272 4.8032,-3.59199 7.21706,-4.04977 4.35738,-0.82636 10.11211,2.16366 11.82423,6.14358 1.61592,3.75633 2.29966,7.4539 2.4784,13.40303 0.1499,4.98887 -0.18691,14.67743 -0.75839,21.8156 l -0.19854,2.48 4.76132,0.005 c 5.40332,0.005 7.73301,0.42697 10.73605,1.9429 3.86088,1.94897 7.01901,6.23061 7.96822,10.80294 0.59815,2.88129 0.20874,8.51539 -0.93235,13.48943 -1.25111,5.45364 -3.02647,15.45265 -3.77833,21.28 -0.82766,6.41476 -0.83418,19.98715 -0.0115,23.84 0.73282,3.43184 1.96125,5.68791 3.61261,6.63474 1.70253,0.97616 3.17598,0.90934 5.49435,-0.24916 3.71718,-1.8575 7.01186,-6.23516 11.54926,-15.34558 3.35627,-6.73887 5.97789,-13.29926 9.33635,-23.36342 l 2.5106,-7.52343 0.48839,-6.55657 c 0.26862,-3.60612 0.7918,-10.87658 1.16261,-16.15658 0.37082,-5.28 0.77114,-9.69994 0.88961,-9.82208 0.11848,-0.12214 1.33137,-0.36019 2.69533,-0.52899 7.06099,-0.87384 12.44903,1.86416 15.26711,7.75818 1.36903,2.86329 1.94151,5.20178 2.90154,11.85239 0.35408,2.45272 0.6903,4.50604 0.74717,4.56292 0.0569,0.0569 0.64761,-0.94189 1.3127,-2.21949 3.16525,-6.08031 11.28086,-20.75932 12.36045,-22.3568 1.66841,-2.46881 5.14137,-5.56707 7.47046,-6.66448 6.45831,-3.04302 15.00871,-1.70433 19.33271,3.02681 3.01059,3.29409 4.04416,6.69633 4.49456,14.79508 0.13958,2.50995 0.32835,4.6381 0.41948,4.72923 0.0911,0.0911 1.21386,-1.74646 2.49495,-4.08354 8.92432,-16.28048 12.80573,-19.81944 21.75894,-19.8392 5.42247,-0.012 8.81111,1.16269 11.70967,4.05912 2.79372,2.79163 4.26409,6.67494 4.94134,13.05024 0.48038,4.52201 0.0403,9.33085 -1.60317,17.51566 -1.86813,9.30393 -2.71398,16.16882 -3.68707,29.92495 -0.82534,11.66696 -0.5048,17.79749 1.27699,24.42309 0.44125,1.6407 0.8017,3.5127 0.80103,4.16 -0.003,1.79355 -2.16256,10.66984 -2.81808,11.57691 -0.61927,0.85687 -3.07652,2.25642 -3.88852,2.21474 -0.27072,-0.0139 -0.70819,-0.10796 -0.97219,-0.20903 z M 351.22056,287.10469 c 4.32747,-4.54773 7.87953,-11.9521 11.48727,-23.94557 2.70811,-9.00276 6.08913,-24.6948 6.09252,-28.27669 0.004,-3.74576 -2.56599,-7.65284 -5.33212,-8.10768 -2.92742,-0.48136 -7.32886,1.65965 -9.80787,4.77086 -5.40176,6.77936 -9.43352,15.29159 -11.06702,23.36572 -1.20315,5.94698 -1.35671,9.33544 -0.66741,14.72713 1.01777,7.96096 1.79712,11.08014 3.75609,15.03287 1.38919,2.80306 2.51569,4.32 3.20809,4.32 0.29435,0 1.34306,-0.84899 2.33045,-1.88664 z m 68.15733,-72.28777 c 0.39366,-5.72597 0.20933,-10.17894 -0.67828,-16.3856 -1.11668,-7.80844 -1.99472,-10.50072 -3.67419,-11.26593 -2.01108,-0.91632 -3.55132,1.47673 -4.83862,7.51772 -1.0949,5.13809 -1.1538,11.24509 -0.1451,15.04437 1.26674,4.77118 4.24383,9.1633 7.26424,10.71695 1.24178,0.63876 1.25914,0.63902 1.49142,0.0222 0.12926,-0.34325 0.3905,-2.88562 0.58053,-5.6497 z m -188.57058,94.63374 c -14.41927,-1.16666 -25.13169,-5.71143 -34.53775,-14.65274 -10.10443,-9.60517 -16.13901,-21.69928 -18.51129,-37.09916 -4.65225,-30.20042 4.47448,-58.29509 25.91227,-79.76533 9.98443,-9.99955 20.73879,-15.97121 33.68528,-18.7047 11.02926,-2.32869 19.69085,-1.62972 27.60654,2.22779 11.07323,5.39625 18.38381,15.0533 20.95795,27.68478 0.51646,2.53434 0.64204,4.40394 0.64204,9.55873 0,5.82678 0.0508,6.42314 0.56,6.57327 0.58862,0.17355 5.29572,0.83767 5.94315,0.83852 0.28331,3.2e-4 0.33373,-1.84629 0.20315,-7.44 -0.33206,-14.22322 0.36015,-32.47742 1.78075,-46.9605 1.02909,-10.49147 4.30729,-33.31692 5.42574,-37.77823 0.19433,-0.77516 0.0409,-0.83164 -18.1384,-6.67685 -30.37655,-9.767005 -51.47906,-16.266715 -55.77438,-17.178875 -8.11177,-1.72262 -17.15277,-1.02033 -25.89062,2.01114 -5.10416,1.77082 -7.35214,3.09764 -10.46526,6.17691 -5.52124,5.461225 -8.33079,12.596085 -7.87023,19.986495 0.44254,7.10106 3.81702,12.5546 10.45739,16.90032 7.80813,5.10995 15.35995,7.5847 20.33729,6.66459 5.31414,-0.98237 8.74634,-4.85314 9.95362,-11.2255 2.07012,-10.92675 -4.28219,-20.00821 -15.32056,-21.90271 l -1.19836,-0.20568 0.48879,-1.1858 c 0.75392,-1.829 1.25378,-2.07236 3.82794,-1.86363 13.07294,1.06005 22.54756,10.82567 22.55775,23.25059 0.007,8.99579 -5.54188,15.84477 -15.52879,19.16582 -5.18634,1.72467 -8.4778,2.15572 -12.62384,1.65323 -13.27928,-1.60942 -26.24787,-9.72356 -31.79645,-19.89428 -4.16418,-7.63307 -4.92547,-19.12509 -1.86397,-28.13753 2.70747,-7.970275 7.83133,-14.734845 14.58047,-19.249275 3.65409,-2.44419 5.07575,-3.15549 9.12095,-4.56353 5.53656,-1.92715 8.70201,-2.46034 15.75907,-2.65447 9.44038,-0.25969 17.30554,0.74075 26.68324,3.39407 8.7509,2.47598 14.59182,4.81293 33.31061,13.32756 6.70949,3.05194 13.90949,6.26422 16,7.13839 5.32168,2.225305 14.94823,5.290015 15.88105,5.055905 0.41262,-0.10356 2.61539,-2.08212 4.89505,-4.396795 7.50272,-7.61792 11.60484,-10.61303 17.34617,-12.66506 6.77073,-2.41995 15.36072,-2.72399 20.68448,-0.73211 2.17242,0.8128 4.4648,2.95392 5.39077,5.03505 2.1274,4.78136 0.22092,11.916985 -4.4128,16.516325 -4.45891,4.42583 -9.31012,6.14116 -19.50377,6.8963 -5.17217,0.38315 -6.27726,0.65844 -6.98615,1.74034 -0.97645,1.49027 -4.48113,15.33697 -5.80048,22.91729 -1.12663,6.47301 -1.6855,12.05664 -2.08188,20.8 -0.5423,11.96187 -0.96795,28.85085 -0.96979,38.48 l -0.002,8.88 2.64,-0.003 c 7.42329,-0.008 13.00093,-1.09842 17.04404,-3.33302 3.1265,-1.728 8.24141,-6.90965 9.81615,-9.94424 1.8151,-3.49776 2.26889,-5.47438 2.12836,-9.2706 -0.11117,-3.00335 -0.21727,-3.46256 -1.31151,-5.67662 -1.27202,-2.57375 -3.08095,-4.68672 -4.75221,-5.55097 -0.56573,-0.29255 -1.83326,-0.60239 -2.81672,-0.68854 -3.98987,-0.34948 -7.53942,2.16 -9.93827,7.02621 -2.8611,5.80392 -2.40753,12.41035 1.17418,17.10265 1.56241,2.04687 0.70682,1.66951 -1.77332,-0.78213 -3.46539,-3.42557 -4.83632,-7.16222 -4.8429,-13.2 -0.009,-8.40591 4.58492,-17.06251 10.48982,-19.76585 3.2998,-1.5107 8.02021,-1.34115 11.74707,0.42194 5.45728,2.5817 8.83389,9.33267 8.87493,17.74391 0.0432,8.85464 -3.90742,16.88907 -11.17167,22.72 -6.18804,4.96707 -13.57884,7.44591 -23.55327,7.89964 -4.12296,0.18755 -4.47491,0.25251 -4.72196,0.87151 -0.14683,0.36787 -0.49993,3.18885 -0.78467,6.26885 -1.02321,11.06786 -3.21003,24.34813 -5.76992,35.04 -4.19729,17.53077 -9.64918,28.05082 -19.40432,37.44292 -10.11411,9.7377 -22.14433,15.10162 -38.6738,17.2435 -4.91539,0.63693 -10.91637,0.83263 -15.11505,0.49292 z m 23.27505,-13.0813 c 4.73422,-1.24339 9.13968,-3.20344 13.00291,-5.78517 2.9279,-1.95667 11.54376,-10.71088 14.6378,-14.87286 2.95184,-3.97071 5.76789,-9.38674 6.73852,-12.96 2.94955,-10.85843 4.29214,-21.98843 4.82432,-39.9932 0.24122,-8.16088 0.22228,-10.47125 -0.0882,-10.75661 -0.41474,-0.3812 -4.98747,-1.0913 -7.02305,-1.09061 -1.13012,3.2e-4 -1.20425,0.0663 -1.52997,1.36041 -1.92879,7.66326 -6.55237,16.49084 -11.69045,22.32 -7.23867,8.2123 -19.01444,15.25488 -28.86341,17.26197 -14.27665,2.9094 -26.58063,-4.00476 -29.84587,-16.77172 -0.81127,-3.17202 -0.81098,-5.01105 0.001,-7.57654 1.1355,-3.58679 1.3259,-3.58862 2.65904,-0.0255 0.64036,1.7115 1.52582,4.26381 1.96767,5.67181 1.57772,5.02744 3.9812,8.10546 7.83558,10.03464 12.7775,6.39534 30.34563,-3.55493 39.02957,-22.10566 2.28099,-4.8727 4.85236,-13.17438 4.2534,-13.73212 -0.4316,-0.40189 -10.45325,-1.61561 -11.6974,-1.41666 -3.21468,0.51402 -5.97176,3.12526 -5.97176,5.65578 0,1.19256 1.33273,3.63845 2.25004,4.12938 0.34647,0.18543 0.62996,0.48752 0.62996,0.67131 0,0.4707 -1.76209,0.0446 -3.55832,-0.86038 -2.7233,-1.37212 -3.98795,-3.64591 -3.73361,-6.7129 0.22383,-2.69905 1.28431,-3.99207 4.62874,-5.64369 l 2.79383,-1.37972 7.89089,0.0628 7.89087,0.0629 0.20379,-1.9498 c 0.55404,-5.3007 -0.0604,-11.56297 -1.57932,-16.0959 -3.90753,-11.66138 -12.92388,-18.72756 -23.88338,-18.71758 -8.66523,0.008 -19.51934,4.33541 -27.83373,11.09726 -6.11467,4.97289 -11.35924,12.16414 -16.29279,22.34032 -3.76111,7.75788 -5.89005,14.53041 -7.21271,22.94494 -0.78931,5.02145 -0.79184,16.79229 -0.005,22.17506 2.9244,19.99986 10.27307,34.68791 21.62398,43.22056 5.43021,4.08198 16.15638,8.73825 22.42652,9.73543 1.32,0.20993 2.616,0.4339 2.88,0.49772 0.264,0.0638 2.64,0.0622 5.28,-0.004 3.54211,-0.0883 5.47088,-0.29587 7.36,-0.79203 z m 79.0732,-190.57688 c 3.98726,-1.00948 8.00314,-2.9175 9.68914,-4.6035 0.71447,-0.71448 1.73824,-2.169095 2.27503,-3.232475 1.98379,-3.92987 1.55632,-6.37315 -1.37018,-7.83149 -1.82074,-0.90732 -3.56593,-1.02155 -5.43235,-0.35558 -3.60313,1.28565 -7.86766,5.00757 -10.65168,9.29637 -1.7,2.618875 -3.38974,5.793915 -3.81905,7.176085 l -0.23935,0.77056 3.19083,-0.2091 c 1.75495,-0.11501 4.61588,-0.5699 6.35761,-1.01087 z"
       id="path442"
       inkscape:connector-curvature="0" />
  </g>
  <g
     inkscape:groupmode="layer"
     id="layer16"
     inkscape:label="Layer 2">
    <path
       style="fill:#000000;stroke-width:0.31999999"
       d="m 958.40817,254.04516 c -0.704,-0.24918 -1.87917,-1.08489 -2.61148,-1.85714 -2.75973,-2.91024 -2.69345,-6.68452 0.16761,-9.54559 2.93797,-2.93797 6.74976,-2.93797 9.68773,0 2.93797,2.93797 2.93797,6.74976 0,9.68773 -2.11565,2.11565 -4.51018,2.68256 -7.24386,1.715 z m 9.6,-19.2 c -2.44883,-0.86674 -4.63643,-3.9614 -4.63643,-6.55887 0,-3.58108 3.45535,-7.03643 7.03643,-7.03643 3.58108,0 7.03643,3.45535 7.03643,7.03643 0,1.76294 -0.73466,3.38597 -2.19257,4.84387 -2.11565,2.11565 -4.51018,2.68256 -7.24386,1.715 z m 3.84,-21.12 c -2.44883,-0.86674 -4.63643,-3.9614 -4.63643,-6.55887 0,-3.58108 3.45535,-7.03643 7.03643,-7.03643 3.58108,0 7.03643,3.45535 7.03643,7.03643 0,1.76294 -0.73466,3.38597 -2.19256,4.84387 -2.11566,2.11565 -4.51019,2.68256 -7.24387,1.715 z m 1.92,-23.04 c -0.704,-0.24918 -1.87917,-1.08489 -2.61148,-1.85715 -2.75973,-2.91023 -2.69345,-6.68451 0.16761,-9.54558 2.93797,-2.93797 6.74977,-2.93797 9.68774,0 2.93796,2.93797 2.93796,6.74976 0,9.68773 -2.11566,2.11565 -4.51019,2.68256 -7.24387,1.715 z"
       id="path485"
       inkscape:connector-curvature="0" />
  </g>
  <g
     inkscape:groupmode="layer"
     id="layer17"
     inkscape:label="Layer 3">
    <path
       style="fill:#000000;stroke-width:0.31999999"
       d="m 215.18011,465.52219 c -7.4814,-1.02893 -12.56156,-5.82956 -15.39925,-14.55194 -1.68407,-5.1764 -1.98527,-7.97511 -1.54079,-14.31661 0.49025,-6.99461 1.24352,-6.45129 -8.55154,-6.16808 -19.22821,0.55595 -34.60328,-2.21356 -48.12322,-8.66844 -5.63277,-2.68928 -9.15733,-5.07684 -12.69546,-8.59998 -4.66575,-4.646 -7.53881,-9.24421 -9.40135,-15.04648 -1.42015,-4.42413 -1.74779,-6.63773 -1.72877,-11.68 0.0672,-17.80704 11.12265,-34.59482 30.40459,-46.16951 8.69428,-5.21905 20.02448,-9.92088 29.12005,-12.0843 1.55328,-0.36945 4.40815,-1.08741 6.34414,-1.59547 16.43586,-4.31316 38.72553,-5.4535 65.12002,-3.33154 30.17176,2.42564 80.78361,12.54952 134.11937,26.82789 15.01237,4.01892 21.92115,6.01302 31.16062,8.99401 33.07946,10.67262 63.2569,18.49058 92.53523,23.97274 12.76237,2.38967 18.94896,2.58812 25.35373,0.81328 5.93414,-1.64444 11.00454,-5.55563 13.53978,-10.44429 2.08985,-4.02981 2.65126,-6.2199 2.65126,-10.34281 0,-3.47665 -0.0566,-3.79951 -1.02448,-5.84273 -1.27456,-2.69074 -3.80675,-5.41064 -6.06656,-6.51625 -2.08192,-1.0186 -6.59187,-1.42012 -8.58022,-0.7639 -3.2024,1.05688 -5.97312,5.67157 -4.02976,6.71162 0.87148,0.46642 1.94102,0.41179 1.94102,-0.0992 0,-0.91605 1.30384,-1.65025 2.88893,-1.62675 3.86089,0.0572 5.93027,4.48541 3.99849,8.55631 -1.84112,3.8799 -7.41212,3.41679 -11.93897,-0.99248 -3.77757,-3.67946 -4.46784,-8.18685 -2.03917,-13.31524 2.62243,-5.53753 6.95181,-8.17954 12.73475,-7.77143 8.95488,0.63195 15.67536,6.33652 18.55715,15.75191 0.79594,2.60051 0.87952,3.34576 0.896,7.98809 0.0192,5.42684 -0.22649,6.7874 -1.9214,10.63772 -1.55229,3.52633 -5.63092,8.62862 -8.80288,11.01229 -9.64685,7.24943 -28.46474,9.10222 -54.5329,5.36925 -10.18678,-1.45876 -25.98566,-4.79539 -36.32,-7.6706 -2.552,-0.71001 -9.608,-2.56781 -15.68,-4.12843 -15.11024,-3.88364 -22.36824,-5.84338 -46.88,-12.65809 -31.40161,-8.73023 -40.909,-11.24879 -54.26823,-14.37599 -50.26843,-11.76711 -93.9898,-14.32697 -136.73824,-8.00596 -15.75228,2.32922 -25.687,5.19325 -36.07166,10.39892 -14.03693,7.0365 -26.5488,18.34011 -31.75718,28.6904 -3.61245,7.17879 -4.1665,13.3488 -1.6604,18.49048 1.34751,2.76464 3.03689,4.55451 7.27775,7.71067 7.82075,5.8204 19.36825,10.11043 31.93796,11.86533 8.30906,1.16005 28.65694,0.43379 30.65458,-1.09414 0.40596,-0.31051 1.42112,-2.14823 2.26924,-4.10797 3.97468,-9.18427 11.59794,-20.208 19.86558,-28.72695 6.59594,-6.79644 14.64492,-12.29195 26.35133,-17.99158 5.52692,-2.69096 7.55784,-3.17842 13.17928,-3.16331 3.91732,0.0105 4.71486,0.10526 6.34997,0.75421 4.18254,1.65998 6.83899,5.02147 7.16355,9.06483 0.21561,2.68604 -0.37548,4.70015 -2.96482,10.10255 -5.25453,10.96304 -12.44517,19.12566 -21.86429,24.81976 -2.66276,1.60971 -13.51551,6.79 -19.7725,9.43792 -7.2756,3.07898 -14.27432,5.42455 -22.08163,7.4005 -2.21933,0.56169 -2.64234,1.12506 -3.49698,4.65724 -0.44441,1.83672 -0.77234,4.15813 -0.7727,5.46991 -0.002,6.22357 4.40597,16.47511 8.19608,19.06285 2.34704,1.60247 5.64636,1.791 7.1725,0.40987 0.72457,-0.65573 0.77635,-1.08218 0.26708,-2.19988 -0.30179,-0.66237 -0.52124,-0.76681 -1.28868,-0.61333 -2.64451,0.5289 -4.17741,-4.325 -2.35043,-7.44251 1.82954,-3.12186 6.65569,-4.19135 9.03724,-2.00269 2.59544,2.38521 3.05249,9.43059 0.88878,13.70046 -0.97337,1.92085 -3.85462,4.56457 -5.51772,5.06285 -1.89955,0.56912 -3.83775,0.68799 -6.11387,0.37495 z m 3.14043,-47.3948 c 15.78718,-4.719 24.83323,-9.09708 33.22093,-16.07817 6.76368,-5.62941 14.14118,-15.19302 15.41697,-19.98534 0.45634,-1.7142 0.20056,-2.97775 -0.85728,-4.23492 -2.08879,-2.48239 -5.43699,-2.8814 -10.35431,-1.23395 -15.08663,5.05449 -29.23447,16.34104 -38.67798,30.85565 -1.92191,2.95396 -6.74036,11.86 -6.74036,12.45834 0,0.46226 1.90887,0.0367 7.99203,-1.78161 z"
       id="path513"
       inkscape:connector-curvature="0" />
  </g>
  <g
     inkscape:groupmode="layer"
     id="layer18"
     inkscape:label="Layer 4">
    <path
       style="fill:#000000;stroke-width:0.31999999"
       d="m 489.32191,411.27079 c -2.44883,-0.86674 -4.63643,-3.9614 -4.63643,-6.55887 0,-3.58108 3.45535,-7.03643 7.03643,-7.03643 3.58108,0 7.03643,3.45535 7.03643,7.03643 0,1.76293 -0.73466,3.38597 -2.19256,4.84387 -2.11566,2.11565 -4.51019,2.68256 -7.24387,1.715 z m -23.04,-3.84 c -0.704,-0.24918 -1.87917,-1.08489 -2.61148,-1.85714 -2.75973,-2.91024 -2.69345,-6.68452 0.16761,-9.54559 2.93797,-2.93797 6.74977,-2.93797 9.68774,0 2.93796,2.93797 2.93796,6.74976 0,9.68773 -2.11566,2.11565 -4.51019,2.68256 -7.24387,1.715 z m -23.04,-5.76 c -0.704,-0.24918 -1.87917,-1.08489 -2.61148,-1.85714 -2.75973,-2.91024 -2.69345,-6.68452 0.16761,-9.54559 2.93797,-2.93797 6.74977,-2.93797 9.68774,0 2.93796,2.93797 2.93796,6.74976 0,9.68773 -2.11566,2.11565 -4.51019,2.68256 -7.24387,1.715 z m -24.95999,-5.76 c -0.704,-0.24918 -1.87917,-1.08489 -2.61148,-1.85714 -2.75973,-2.91024 -2.69345,-6.68452 0.16761,-9.54559 2.93797,-2.93797 6.74976,-2.93797 9.68773,0 2.93796,2.93797 2.93796,6.74976 0,9.68773 -2.11566,2.11565 -4.51018,2.68256 -7.24386,1.715 z m -23.04,-5.76 c -0.704,-0.24918 -1.87917,-1.08489 -2.61149,-1.85714 -2.75972,-2.91024 -2.69345,-6.68452 0.16762,-9.54559 2.93797,-2.93797 6.74976,-2.93797 9.68773,0 2.93797,2.93797 2.93797,6.74976 0,9.68773 -2.11565,2.11565 -4.51018,2.68256 -7.24386,1.715 z m -23.04,-5.76 c -0.704,-0.24918 -1.87917,-1.08489 -2.61149,-1.85714 -2.75972,-2.91024 -2.69345,-6.68452 0.16762,-9.54559 2.93797,-2.93797 6.74976,-2.93797 9.68773,0 2.93797,2.93797 2.93797,6.74976 0,9.68773 -2.11565,2.11565 -4.51018,2.68256 -7.24386,1.715 z m -23.04,-5.76 c -0.704,-0.24917 -1.87917,-1.08489 -2.61149,-1.85714 -2.75972,-2.91024 -2.69345,-6.68452 0.16762,-9.54559 2.93797,-2.93797 6.74976,-2.93797 9.68773,0 2.93797,2.93797 2.93797,6.74976 0,9.68773 -2.11565,2.11565 -4.51018,2.68256 -7.24386,1.715 z m -23.04,-5.76 c -0.704,-0.24917 -1.87917,-1.08489 -2.61149,-1.85714 -2.75972,-2.91024 -2.69345,-6.68452 0.16762,-9.54559 2.93797,-2.93797 6.74976,-2.93797 9.68773,0 2.93797,2.93797 2.93797,6.74976 0,9.68773 -2.11565,2.11565 -4.51018,2.68256 -7.24386,1.715 z"
       id="path541"
       inkscape:connector-curvature="0" />
  </g>
  <g
     inkscape:groupmode="layer"
     id="layer19"
     inkscape:label="Layer 5">
    <path
       style="fill:#000000;stroke-width:0.31999999"
       d="m 821.67993,466.31127 c -1.29167,-0.31215 -3.41294,-2.19991 -4.18185,-3.72152 -1.29744,-2.56751 -0.7392,-8.84781 1.87869,-21.13553 3.14919,-14.78153 4.07322,-19.84215 4.64515,-25.44 0.25085,-2.45524 1.40276,-11.46127 2.41485,-18.88 0.99815,-7.31663 2.05511,-13.81074 2.47391,-15.2 0.38876,-1.2896 0.54457,-1.45071 1.49186,-1.54251 1.9257,-0.18662 2.55344,0.97894 3.24358,6.02251 0.20471,1.496 0.43133,3.44 0.50359,4.32 0.0723,0.88 0.19667,1.888 0.27647,2.24 0.63219,2.78901 1.04809,15.92874 1.28127,40.48 0.13769,14.49685 0.0992,16.13848 -0.45435,19.36 -1.11559,6.49295 -2.67075,9.7637 -5.7349,12.06142 -1.10123,0.82579 -2.20134,1.42503 -2.44468,1.33165 -0.24334,-0.0934 -0.62934,-0.049 -0.85776,0.0986 -0.56777,0.36686 -3.02804,0.36979 -4.53583,0.005 z m 77.0805,-10.20521 c -2.18865,-0.43552 -3.90682,-1.2685 -4.57814,-2.21949 -0.22998,-0.32579 -0.66198,-0.59659 -0.96,-0.60178 -0.67432,-0.0117 -2.94186,-3.08262 -2.94186,-3.98411 0,-0.36523 -0.18726,-0.9481 -0.41615,-1.29526 -0.87705,-1.33028 -2.29708,-8.75697 -2.60121,-13.6042 -0.0943,-1.50316 -0.24866,-5.10316 -0.343,-8 -0.23756,-7.2945 -0.42812,-9.90797 -0.97902,-13.427 -0.71965,-4.59692 -2.57973,-14.62776 -3.67905,-19.84 -0.53825,-2.552 -1.0351,-4.928 -1.10412,-5.28 -0.33043,-1.6853 -0.55038,-2.9772 -0.68099,-4 -0.0787,-0.616 -0.36554,-2.75544 -0.63749,-4.75432 -0.27196,-1.99887 -0.51798,-6.07947 -0.54672,-9.06798 -0.0516,-5.37184 -0.0435,-5.44072 0.71236,-6.0531 0.48008,-0.38892 1.01592,-0.54812 1.44,-0.42783 1.01873,0.28899 2.43539,2.07612 2.43539,3.07226 0,0.48026 0.144,0.9622 0.32,1.07097 0.176,0.10877 0.32,0.61277 0.32,1.12 0,0.50723 0.144,1.01123 0.32,1.12 0.176,0.10877 0.32,0.5376 0.32,0.95295 0,0.41535 0.20002,1.16285 0.44449,1.66112 0.58233,1.18688 1.17234,2.95886 1.2947,3.88839 0.0538,0.40836 0.26043,0.90516 0.45928,1.104 0.19884,0.19885 0.36153,0.73594 0.36153,1.19354 0,0.4576 0.1552,0.98719 0.34488,1.17688 0.18968,0.18968 0.46504,0.83048 0.6119,1.424 0.2481,1.00264 0.71565,2.42228 1.30391,3.95912 0.13474,0.352 0.49183,1.432 0.79353,2.4 0.30171,0.968 0.72551,2.264 0.94179,2.88 0.99339,2.82933 1.20929,3.48054 1.75055,5.28 0.31764,1.056 0.7236,2.28 0.90215,2.72 0.17856,0.44 0.49748,1.448 0.70872,2.24 0.21125,0.792 0.58624,1.91288 0.83333,2.49086 0.24708,0.57797 0.44924,1.32547 0.44924,1.66111 0,0.33564 0.144,0.69925 0.32,0.80803 0.176,0.10877 0.32,0.61277 0.32,1.12 0,0.50722 0.144,1.01122 0.32,1.12 0.176,0.10877 0.32,0.61277 0.32,1.12 0,0.50722 0.144,1.01122 0.32,1.12 0.176,0.10877 0.32,0.50305 0.32,0.87616 0,0.63928 0.41567,2.16746 0.98024,3.60384 0.13836,0.352 0.32351,1 0.41145,1.44 0.68902,3.44744 2.41791,9.66586 2.79805,10.064 0.15965,0.1672 0.29026,0.55831 0.29026,0.86914 0,0.31083 0.20088,1.03803 0.44639,1.616 0.24551,0.57797 0.83762,2.34686 1.31579,3.93086 0.47818,1.584 0.94301,3.096 1.03297,3.36 0.09,0.264 0.37219,1.344 0.62717,2.4 1.12328,4.65192 1.35332,9.40137 0.57118,11.79264 -1.28917,3.9414 -4.80244,6.53419 -7.9935,5.8992 z M 779.66426,427.78451 c -0.55889,-0.07 -1.18852,-0.33496 -1.39918,-0.58879 -0.21065,-0.25382 -0.56928,-0.4615 -0.79694,-0.4615 -0.22766,0 -0.85162,-0.55264 -1.38659,-1.22808 -0.77033,-0.97263 -1.01747,-1.66554 -1.18812,-3.33119 -0.20669,-2.01734 -0.16014,-2.21846 1.14145,-4.93192 1.72572,-3.59764 2.87783,-6.46222 4.86267,-12.09042 0.87252,-2.47412 1.77299,-5.00239 2.00105,-5.61839 0.22805,-0.616 0.78814,-2.128 1.24464,-3.36 0.4565,-1.232 1.34012,-3.28781 1.9636,-4.56846 0.62348,-1.28065 1.13359,-2.45156 1.13359,-2.60202 0,-0.15046 0.49948,-0.65453 1.10995,-1.12016 1.37467,-1.04851 2.42116,-0.87165 3.54267,0.59874 0.88054,1.15444 0.87807,2.48416 -0.0122,6.55454 -0.25229,1.15355 -0.9686,5.40936 -1.59179,9.45736 -1.42448,9.2529 -2.92144,17.94025 -3.31308,19.22681 -0.16521,0.54274 -0.65679,1.55139 -1.0924,2.24144 -0.62812,0.995 -1.10038,1.33711 -2.28218,1.65319 -1.47578,0.39471 -1.96615,0.41574 -3.93716,0.16885 z m 180.53617,-29.58395 c -0.704,-0.15133 -1.496,-0.36788 -1.76,-0.48122 -0.264,-0.11333 -0.64079,-0.18145 -0.83731,-0.15137 -0.19652,0.0301 -0.53815,-0.1632 -0.75918,-0.42953 -0.22103,-0.26632 -0.57792,-0.48422 -0.7931,-0.48422 -0.21517,0 -0.65185,-0.288 -0.97041,-0.64 -0.31856,-0.352 -0.7454,-0.64 -0.94855,-0.64 -0.86018,0 -5.39595,-4.99304 -8.65681,-9.52956 -1.93305,-2.68925 -3.56724,-5.13263 -3.63153,-5.42971 -0.0643,-0.29709 -0.46029,-0.99038 -0.88,-1.54065 -0.41971,-0.55027 -0.76311,-1.13922 -0.76311,-1.30878 0,-0.16956 -0.936,-1.59315 -2.08,-3.16355 -1.144,-1.57039 -2.08,-3.04002 -2.08,-3.26585 0,-0.53461 -0.44318,-1.28871 -2.48,-4.21984 -0.924,-1.3297 -1.6832,-2.63464 -1.68711,-2.89985 -0.004,-0.26522 -0.28871,-0.84221 -0.63289,-1.28221 -0.34417,-0.44 -0.62897,-0.90577 -0.63288,-1.03505 -0.004,-0.12928 -1.59112,-2.38032 -3.52712,-5.00231 -1.936,-2.62198 -3.52,-5.06488 -3.52,-5.42866 0,-0.92386 2.00635,-2.41127 2.87896,-2.13431 0.36815,0.11684 2.29223,1.82072 4.27575,3.78639 1.98352,1.96566 3.95715,3.87821 4.38585,4.2501 0.42869,0.37189 1.25914,1.19989 1.84544,1.84 0.5863,0.64011 1.2343,1.16724 1.44,1.1714 0.2057,0.004 0.79762,0.58016 1.31539,1.28 0.51776,0.69984 1.07078,1.27244 1.22893,1.27244 0.15815,0 1.03052,0.71948 1.93861,1.59885 0.90809,0.87936 2.29907,2.17966 3.09107,2.88953 0.792,0.70989 2.0463,1.8624 2.78733,2.56116 0.74103,0.69875 1.51231,1.27046 1.71395,1.27046 0.20163,0 0.64979,0.36 0.99589,0.8 0.34611,0.44 0.80973,0.8 1.03028,0.8 0.22054,0 0.73919,0.36 1.15255,0.8 0.41336,0.44 0.92014,0.8 1.12619,0.8 0.20604,0 0.63525,0.288 0.95381,0.64 0.31856,0.352 0.74777,0.64 0.95382,0.64 0.20604,0 0.71282,0.36 1.12618,0.8 0.41336,0.44 0.92014,0.8 1.12619,0.8 0.20604,0 0.63525,0.288 0.95381,0.64 0.31856,0.352 0.74777,0.64 0.95382,0.64 0.20604,0 0.71282,0.36 1.12618,0.8 0.41336,0.44 0.8867,0.8 1.05186,0.8 0.38861,0 2.13664,1.40555 3.84189,3.08918 2.66927,2.63542 3.222,4.55431 2.43732,8.46152 -0.45393,2.26028 -1.63226,3.93839 -3.81107,5.42749 -1.92178,1.31343 -3.31121,1.63136 -5.28,1.20815 z m 22.8062,-65.40681 c -0.0993,-0.0993 -0.62783,-0.19319 -1.1746,-0.20873 -0.54677,-0.0155 -1.15519,-0.22234 -1.35204,-0.45953 -0.19686,-0.2372 -0.51297,-0.43127 -0.70247,-0.43127 -0.1895,0 -1.86386,-1.55907 -3.72081,-3.46459 -1.85695,-1.90553 -4.52828,-4.51878 -5.93628,-5.80723 -3.58723,-3.28265 -5.35354,-5.65085 -5.12603,-6.8728 0.22892,-1.22952 1.28195,-2.32849 2.48417,-2.59254 0.87455,-0.19209 1.76887,0.0532 3.12186,0.85622 0.55475,0.32925 2.17915,1.10823 2.88,1.3811 0.264,0.10279 0.912,0.46278 1.44,0.79998 0.528,0.33719 1.19437,0.62361 1.48082,0.63647 0.28645,0.0129 0.70008,0.23939 0.91918,0.50339 0.2191,0.264 0.63993,0.48 0.93518,0.48 0.29525,0 0.71682,0.18 0.93682,0.4 0.22,0.22 0.5008,0.40875 0.624,0.41944 0.1232,0.0107 0.78159,0.2627 1.46308,0.56 0.68149,0.29731 1.36745,0.54056 1.52434,0.54056 1.14472,0 4.32803,2.95661 5.11047,4.74653 1.37422,3.14365 0.22252,6.00119 -3.18665,7.90661 -1.58544,0.88612 -1.47887,0.84857 -1.72104,0.60639 z"
       id="path569"
       inkscape:connector-curvature="0" />
  </g>
</svg>
