<svg xmlns="http://www.w3.org/2000/svg" width="1152" height="1152" viewBox="0 0 1152 1152"><path d="M619.362 429.342c-11.364-2.02-20.066-6.447-27.69-14.09-7.133-7.15-11.477-15.122-13.7-25.146-2.188-9.876-1.922-18.822.804-26.998 1.26-3.778 3.958-9.048 6.446-12.588 2.498-3.555 9.937-11.02 14.233-14.284 10.382-7.887 25.277-15.12 36.36-17.657 4.286-.982 4.853-1.628 4.55-5.19-.11-1.302.017-7.504.28-13.783.264-6.28.764-18.273 1.112-26.655.92-22.166 2.037-30.616 5.68-43 .915-3.115 1.158-4.548 1.286-7.584.086-2.06.067-4.1-.042-4.538-.494-1.97-2.11-2.295-4.768-.96-4.735 2.375-9.505 6.415-12.796 10.835-7.488 10.055-11.18 27.256-9.855 45.926.698 9.84.74 12.494.255 16.575-.535 4.504-.727 4.838-3.7 6.398-2.568 1.347-4.762 1.782-8.015 1.588-7.084-.422-11.737-4.537-14.38-12.72-1.056-3.264-1.273-5.3-2.205-20.64-.74-12.192-.875-16.752-.876-29.76 0-15.05.17-19.04 1.28-30.08 2.004-19.872 6.77-39.733 13.094-54.54.95-2.22 2.027-4.847 2.397-5.835 1.938-5.176 6.52-9.946 12.818-13.342 5.96-3.214 10.087-2.852 13.83 1.214 3.057 3.32 5.915 9.272 7.154 14.904.905 4.112.772 10.496-.327 15.68-1.96 9.25-5.065 18.445-10.95 32.426-4.468 10.618-5.85 14.153-8.566 21.925-2.365 6.767-3.21 10.448-2.5 10.887.183.113 1.67-1.56 3.306-3.715 4.334-5.712 10.597-13.08 12.87-15.143 4.353-3.948 10.476-5.72 17.178-4.973 4.15.463 5.77 1.08 7.86 2.99 3.415 3.12 5.804 9.835 6.122 17.204.197 4.556-.144 7.87-2.303 22.4-1.406 9.462-3.597 26.424-4.382 33.92-.257 2.466-.416 8.115-.414 14.72.004 13.657.434 16.72 2.542 18.1.887.583 2.882.874 10.8 1.58 20.127 1.794 35.38 6.333 49.55 14.745 9.204 5.463 16.088 12.243 19.82 19.518 4.347 8.478 5.04 18.73 1.9 28.106-3.42 10.202-9.76 16.578-18.696 18.803-2.494.62-3.694.715-8.96.7-8.358-.023-14.605-.854-21.76-2.892-17.74-5.053-31.583-17.1-40.934-35.62-2.807-5.56-4.738-10.297-7.997-19.624-3.44-9.848-3.672-10.236-6.078-10.188-3.057.062-13.227 4.068-20.028 7.89-9.44 5.305-20.726 14.14-24.627 19.28-2.093 2.756-4.286 7.202-5.17 10.483-.93 3.448-1.024 10.606-.192 14.484 3.916 18.235 16.247 31.192 34.074 35.803 9.31 2.408 15.566-1.557 17.18-10.888.594-3.432.68-13.625.128-15.27-.712-2.127-2.304-3.094-6.036-3.665-1.972-.302-5.26-1.33-7.263-2.272-2.88-1.354-3.854-4.065-2.29-6.364.93-1.366 2.167-1.974 5.33-2.62 4.627-.943 9.82.575 12.54 3.665 1.97 2.236 5.054 9.073 6.61 14.646 1.182 4.233 1.37 9.61.47 13.378-1.296 5.418-3.834 9.765-8.083 13.844-2.877 2.762-4.656 3.996-8.06 5.587-5.098 2.383-11.257 3.303-16.215 2.423zm105.063-48.67c2.592-.674 4.23-1.585 6.196-3.444 6.54-6.185 5.952-18.455-1.262-26.348-2.734-2.992-9.264-7.64-16.104-11.466-9.194-5.142-21.204-9.27-32.612-11.21-4.136-.703-10.884-1.453-13.078-1.453h-1.882l.185.924c.463 2.318 3.376 9.648 5.8 14.597 6.99 14.27 17.188 25.56 29.777 32.97 8.26 4.86 17.127 6.958 22.98 5.433zm-101.458-182.1c4.825-10.483 8.643-21.036 10.623-29.367 1.97-8.292 2.254-10.58 2.238-18.134-.013-6.572-.053-7.007-.893-9.76-1-3.272-2.212-5.422-3.485-6.18-.853-.506-.9-.493-2.02.592-1.568 1.515-3.278 4.157-4.36 6.732-1.69 4.02-4.387 19.25-5.05 28.517-.372 5.178-.47 32.024-.118 32.375.503.503.97-.225 3.065-4.774zm229.155 148.666c-4.264-1.118-7.838-3.254-11.755-7.025-6.692-6.443-9.545-14.5-8.55-24.148 1.055-10.242 5.36-19.733 14.4-31.74 1.977-2.624 2.576-3.65 2.443-4.176-.162-.648-10.605-22.354-13.504-28.07l-1.274-2.513-.74 3.312c-.958 4.296-4.955 18.298-7.076 24.79-2.56 7.83-4.96 12.165-8.684 15.68-3.774 3.565-6.458 3.98-12.74 1.977-1.144-.365-2.587-.918-3.208-1.23-2.14-1.073-5.085-3.542-6.585-5.52-2.77-3.654-4.053-7.223-6.53-18.146-.54-2.375-1.06-4.535-1.16-4.8-.098-.263-.943 2.185-1.878 5.44-2.758 9.604-5.34 15.613-8.728 20.32-2.966 4.12-6.194 5.592-11.23 5.12-3.787-.354-6.946-1.294-10.762-3.2-8.664-4.332-14.477-11.862-16.543-21.435-.778-3.6-1.147-15.696-.62-20.306.19-1.664.285-3.083.213-3.155-.072-.072-.968.51-1.99 1.296-1.024.787-2.893 2.09-4.154 2.896-2.273 1.453-2.298 1.484-2.66 3.326-1.952 9.908-5.275 17.975-10.904 26.472-5.935 8.958-11.34 13.023-19.57 14.72-9.364 1.93-18.71-2.133-22.45-9.756-3.366-6.865-3.944-17.842-1.442-27.43.537-2.06 1.052-4.068 1.144-4.46.108-.463-.34-1.696-1.277-3.52-5.192-10.096-4.198-19.858 2.803-27.527 5.408-5.922 12.882-10.372 20.9-12.444 2.767-.715 3.585-.79 7.43-.668 3.624.115 4.73.276 6.88 1.005 4.747 1.61 8.924 4.49 11.547 7.963 1.906 2.523 2.114 3.033 3.797 9.342 1.295 4.852 1.74 7.344 2.34 13.15l.235 2.267 3.618-2.28c5.673-3.57 5.303-3.088 6.76-8.814 1.35-5.293 5.068-17.364 5.656-18.356.334-.564.552-.512 4 .96 4.1 1.748 6.974 3.533 8.103 5.03 1.468 1.946 1.51 2.74.767 14.127-.94 14.362-1.01 31.624-.154 36.96.777 4.84 1.874 9.102 2.904 11.28 1.166 2.463 2.955 4.72 3.74 4.72 1.455 0 5.393-4.982 7.818-9.892 3.927-7.95 6.583-16.5 10.54-33.93 2.18-9.6 5.072-20.19 6.084-22.27.43-.887 1.426-2.283 2.21-3.102 2.644-2.76 5.416-3.605 8.69-2.653 4.454 1.295 6.735 3.284 7.83 6.83.783 2.533.783 3.25 0 14.138-2.27 31.506-2.55 40.11-1.59 48.42.437 3.766 1.728 6.263 3.253 6.29.717.014 2.612-1.664 3.755-3.325 1.49-2.166 6.327-13.953 8.676-21.144 2.033-6.22 4.49-15.82 6.09-23.784l.664-3.306-1.607-3.574c-3.208-7.138-5.232-13.06-6.49-18.985-1.044-4.913-1.057-11.977-.03-15.552 1.03-3.58 1.93-5.31 3.668-7.056 4.828-4.844 11.375-4.012 13.78 1.75.27.646.74 2.292 1.043 3.66.692 3.104.498 10.428-.458 17.36-.35 2.527-.548 4.83-.443 5.12.103.292 1.437 2.113 2.962 4.05 9.665 12.265 17.216 23.725 23.555 35.748 1.512 2.866 2.794 5.26 2.85 5.317.056.058 1.95-.5 4.21-1.24 2.258-.74 5.69-1.667 7.627-2.06l3.52-.717.078-1.564c.194-3.91.8-9.196 1.39-12.125 2.278-11.293 8.305-22.025 15.354-27.337 5.896-4.442 12.217-6.02 20.638-5.153 10.442 1.075 14.95 4.965 15.418 13.303.463 8.255-4.802 17.364-12.078 20.898-3.114 1.513-6.192 2.122-9.12 1.804-1.76-.19-6.937-1.205-8.198-1.605-1.27-.404-2.31 11.223-1.593 17.81.462 4.253 1.347 7.488 2.812 10.276 3.075 5.852 6.71 7.627 14.682 7.17 8.06-.46 15.265-3.47 25.24-10.546 22.1-15.678 35.507-41.133 37.933-72.025.42-5.358.415-21.077-.01-25.794-.928-10.324-3.507-19.365-8.033-28.16-3.63-7.05-8.884-13.817-13.767-17.727-11.905-9.53-27.967-9.073-39.117 1.117-3.664 3.35-6.696 8.172-7.826 12.45-2.335 8.843.027 18.713 6.197 25.897 3.075 3.58 5.707 5 9.935 5.357 2.737.23 4.506-.17 6.384-1.448 1.575-1.07 1.772-2.198.708-4.045-.677-1.175-.833-1.27-1.922-1.174-2.553.226-4.807-1.077-6.196-3.582-.8-1.444-.91-1.972-.91-4.363 0-2.278.14-3.014.855-4.542 1.8-3.84 5.586-6.38 10.418-6.985 5.45-.683 9.247 1.406 10.983 6.047 1.365 3.646 1.657 5.694 1.49 10.44-.18 5.05-.79 7.697-2.693 11.68-1.497 3.134-5.033 6.725-8.253 8.383-8.925 4.596-20.657 4.555-28.546-.1-2.364-1.396-6.642-5.625-8.376-8.282-1.653-2.53-4.19-7.735-5.15-10.56-1.497-4.41-1.965-6.86-2.14-11.2-.146-3.65-.065-4.84.522-7.676 1.462-7.072 4.48-12.413 10.563-18.684 5.93-6.114 11.09-9.94 18.168-13.467 7.38-3.68 12.467-4.815 20.4-4.553 5.308.176 8.54.707 14.115 2.32 8.696 2.513 17.54 8.764 23.3 16.466 8.798 11.764 13.36 23.204 15.038 37.71 1.675 14.48 1.254 31.764-1.11 45.645-4.06 23.83-14.588 44.48-30.59 60-9.558 9.272-19.21 15.164-31.474 19.216-6.337 2.094-10.59 2.885-16.672 3.098-7.73.27-12.83-.734-19.053-3.755-9.208-4.47-16.03-12.472-18.475-21.67-.735-2.767-.76-2.807-1.674-2.705-2.205.247-8.73 2.172-11.107 3.28-1.03.48-1.076.174.717 4.852 2.5 6.522 4.966 16.627 6.152 25.204.642 4.642.547 15.423-.17 19.36-.765 4.192-2.704 10.063-4.415 13.363-1.833 3.534-5.61 7.405-8.61 8.825-4.26 2.014-9.456 2.514-13.934 1.34zm-.224-15.153c4.22-2.182 5.806-6.436 5.445-14.614-.21-4.72-1.068-10.305-2.314-15.04-1.18-4.474-4.062-13.44-4.324-13.44-.335 0-2.23 2.393-4.056 5.12-2.01 3.003-4.232 7.428-5.305 10.56-1.89 5.525-2.858 13.36-2.16 17.5.743 4.402 3.22 8.355 6.174 9.856 1.422.722 1.98.832 3.617.712 1.064-.078 2.378-.372 2.92-.653zm-146.243-45.36c4.556-2.204 9.868-10.33 14.76-22.574 1.065-2.662 2.083-5.374 2.263-6.026.293-1.06.27-1.163-.214-.96-1.315.552-4.643 1.543-7.742 2.306-3.1.764-3.965.832-11.2.888l-7.84.06-.737 3.487c-1.01 4.775-1.3 12.524-.58 15.57.886 3.757 2.434 6.12 4.837 7.385 1.436.756 4.757.687 6.453-.134zm-1.21-34.707c6.333-.798 10.634-1.774 17.123-3.887l2.525-.822-.19-2.918c-.352-5.335-1.298-8.703-4.058-14.443-2.825-5.875-5.378-8.32-10.196-9.77-1.98-.596-2.843-.68-5.44-.536-5.69.32-10.345 2.203-13.682 5.536-2.82 2.817-3.997 5.358-4.21 9.087-.09 1.588-.06 2.888.07 2.888.127 0 1.02-.7 1.98-1.557.962-.858 2.425-1.925 3.252-2.373 1.41-.763 13.626-5.03 14.403-5.03.196 0 .512.29.7.644.283.527.005 1.404-1.55 4.88-3.053 6.83-7.09 17.476-7.09 18.696 0 .37.267.436 1.2.293.66-.102 2.983-.41 5.163-.685zm216.01-3.358c1.398-.662 2.74-1.672 4.207-3.164 4.158-4.233 6.11-10.088 4.644-13.927-.683-1.79-2.644-3.59-4.232-3.89-2.455-.46-5.694 1.095-7.904 3.793-2.554 3.12-6.3 9.788-8.176 14.556l-.66 1.677 1.194.52c2.43 1.06 3.816 1.362 6.314 1.383 2.213.018 2.84-.11 4.613-.95zm-86.4-39.882c.023-4.73-.057-5.69-.58-6.914-.818-1.905-1.53-2.154-2.122-.74-.785 1.88-1.146 4.075-1.14 6.95.004 3.226.668 5.478 2.316 7.85l1.072 1.547.212-1.6c.117-.88.225-4.07.24-7.092zM574.24 319.798c-1.905-.73-6.65-5.35-8.762-8.53-3.99-6.012-6.677-16.25-7.578-28.876-.75-10.494.06-17.322 4.842-40.92 1.792-8.837 2.543-13.197 2.426-14.08-.193-1.466-1.398-2.72-2.614-2.72-1.613 0-6.002 5.8-8.05 10.64-1.583 3.74-7.193 20.666-13.217 39.88-2.836 9.04-5.424 16.96-5.752 17.6-1.685 3.273-3.53 4.84-5.702 4.84-.5 0-2.08-.568-3.513-1.26l-2.606-1.26-.986-3.14c-2.378-7.57-3.208-14.217-3.208-25.705 0-11.28.894-19.748 3.364-31.873 1.39-6.826 1.406-7.562.18-8.787-.514-.515-1.198-.935-1.52-.934-2.285.005-6.23 5.77-9.504 13.887-.622 1.543-4.53 13.486-8.685 26.54-4.154 13.052-7.837 24.61-8.185 25.686-1.184 3.663-3.39 6.298-5.624 6.717-3.586.672-9.712-3.723-12.26-8.798-.976-1.944-2.15-6.754-2.625-10.754-.22-1.842-.488-3.243-.598-3.114-.11.13-.53 1.17-.932 2.315-2.347 6.66-7.36 16.45-10.81 21.12-2.44 3.303-7.213 7.915-9.697 9.372-3.35 1.964-5.93 2.628-10.224 2.628-4.243 0-7.05-.702-10.56-2.64-2.657-1.465-6.283-5.087-7.768-7.76-1.528-2.747-3.252-8.03-3.916-12-.725-4.338-1.102-13.31-.783-18.65.202-3.383.525-5.398 1.407-8.792 1.487-5.72 4.67-21.836 4.88-24.717.147-1.987.08-2.364-.597-3.354-.42-.614-1.157-1.255-1.64-1.425-1.417-.497-1.95.398-2.944 4.94-.48 2.2-1.355 5.76-1.944 7.91-.588 2.15-1.447 5.607-1.907 7.68-1.265 5.694-5.43 20.718-7.254 26.156-2.495 7.442-5.01 12.013-8.555 15.55-2.567 2.56-4.313 3.313-7.698 3.314-2.212 0-3.234-.18-5.477-.97-6.495-2.29-11.01-6.93-13.197-13.56-.435-1.32-1.458-5.423-2.272-9.12-.815-3.695-1.566-7-1.67-7.344-.12-.395-.65 1.072-1.45 4-2.11 7.73-5.917 16.98-8.76 21.28-1.577 2.382-3.274 3.97-5.254 4.91-1.562.74-2.12.83-4.96.792-7.728-.106-14.96-3.376-20.75-9.382-4.158-4.313-6.823-9.375-8.095-15.38-.704-3.32-.8-13.17-.167-17.115 2.555-15.924 11.268-29.39 21.76-33.628 3.332-1.346 6.25-1.82 11.412-1.857 4.188-.03 5.107.062 7.2.712 4.126 1.282 6.526 2.942 9.654 6.68 1.085 1.295 2.07 2.243 2.188 2.105.118-.138.76-1.835 1.43-3.77 1.474-4.274 2.39-6.145 3.526-7.2.79-.736 1.074-.795 3.52-.728 4.74.13 8.23 2.123 9.798 5.595 1.032 2.283 1 4.156-.495 28.09-1.055 16.914-1.186 20.413-1.04 27.68.15 7.343.252 8.585.866 10.56 1.405 4.53 3.04 4.866 5.843 1.2 2.818-3.688 2.37-2.594 9.232-22.48 3.163-9.165 4.785-14.492 6.867-22.56 1.5-5.807 2.934-11.27 3.188-12.137.254-.868.462-1.766.462-1.997 0-.23-1.332-1.087-2.96-1.904-4.06-2.04-6.402-3.676-9.063-6.337-3.853-3.853-6.14-7.792-7.564-13.036-.61-2.244-.72-3.433-.703-7.47.02-4.234.124-5.138.88-7.68 1.318-4.433 3.705-9.018 5.804-11.15 1.97-2.004 4.803-3.593 7.217-4.05 4.357-.827 10.112 2.163 11.824 6.143 1.616 3.756 2.3 7.454 2.48 13.403.15 4.99-.188 14.677-.76 21.815l-.198 2.48 4.76.006c5.404.005 7.734.427 10.737 1.943 3.86 1.948 7.02 6.23 7.968 10.802.598 2.88.21 8.516-.932 13.49-1.25 5.453-3.027 15.452-3.778 21.28-.828 6.414-.835 19.987-.012 23.84.733 3.43 1.96 5.687 3.613 6.634 1.702.976 3.176.91 5.494-.25 3.717-1.856 7.012-6.234 11.55-15.344 3.356-6.74 5.977-13.3 9.336-23.364l2.51-7.523.49-6.557c.267-3.606.79-10.876 1.16-16.156.372-5.28.772-9.7.89-9.822.12-.123 1.332-.36 2.696-.53 7.06-.873 12.45 1.865 15.267 7.76 1.368 2.862 1.94 5.2 2.9 11.85.355 2.454.69 4.507.748 4.564.057.057.648-.942 1.313-2.22 3.166-6.08 11.282-20.76 12.36-22.356 1.67-2.47 5.143-5.567 7.472-6.665 6.458-3.043 15.008-1.704 19.332 3.027 3.01 3.294 4.045 6.696 4.495 14.795.14 2.51.327 4.638.418 4.73.092.09 1.214-1.747 2.495-4.084 8.925-16.28 12.806-19.82 21.76-19.838 5.422-.012 8.81 1.162 11.71 4.06 2.793 2.79 4.263 6.674 4.94 13.05.48 4.52.04 9.33-1.603 17.515-1.868 9.304-2.714 16.168-3.687 29.925-.825 11.667-.505 17.797 1.277 24.423.44 1.64.802 3.512.8 4.16-.002 1.793-2.16 10.67-2.817 11.577-.62.856-3.077 2.256-3.89 2.214-.27-.014-.707-.108-.97-.21zm-223.02-32.693c4.326-4.548 7.878-11.952 11.486-23.946 2.708-9.004 6.09-24.696 6.092-28.278.004-3.745-2.566-7.652-5.332-8.107-2.927-.482-7.33 1.66-9.808 4.77-5.4 6.78-9.433 15.292-11.067 23.366-1.203 5.948-1.356 9.337-.667 14.728 1.018 7.96 1.797 11.08 3.756 15.033 1.39 2.804 2.516 4.32 3.208 4.32.294 0 1.343-.848 2.33-1.885zm68.156-72.288c.394-5.726.21-10.18-.678-16.386-1.117-7.807-1.995-10.5-3.675-11.265-2.01-.916-3.55 1.477-4.838 7.518-1.095 5.138-1.154 11.245-.145 15.044 1.266 4.772 4.244 9.164 7.264 10.717 1.242.64 1.26.64 1.49.023.13-.344.392-2.886.582-5.65zm-188.57 94.634c-14.42-1.166-25.132-5.71-34.538-14.652-10.105-9.605-16.14-21.7-18.512-37.1-4.652-30.2 4.475-58.294 25.913-79.765 9.985-10 20.74-15.97 33.686-18.704 11.03-2.33 19.69-1.63 27.606 2.227 11.074 5.396 18.384 15.053 20.958 27.684.517 2.536.642 4.405.642 9.56 0 5.827.05 6.423.56 6.573.59.174 5.296.838 5.943.84.284 0 .334-1.847.204-7.44-.333-14.224.36-32.48 1.78-46.962 1.028-10.49 4.307-33.316 5.425-37.777.194-.775.04-.832-18.138-6.677-30.377-9.767-51.48-16.266-55.775-17.18-8.11-1.72-17.152-1.02-25.89 2.013-5.104 1.77-7.352 3.096-10.466 6.175-5.52 5.462-8.33 12.597-7.87 19.987.443 7.1 3.817 12.555 10.458 16.9 7.808 5.11 15.36 7.585 20.337 6.665 5.315-.983 8.747-4.853 9.955-11.226 2.07-10.925-4.283-20.007-15.32-21.9l-1.2-.207.49-1.186c.753-1.83 1.253-2.072 3.827-1.863 13.073 1.06 22.548 10.825 22.558 23.25.007 8.996-5.542 15.845-15.53 19.166-5.185 1.725-8.476 2.156-12.623 1.653-13.28-1.61-26.247-9.723-31.796-19.894-4.163-7.634-4.924-19.126-1.863-28.14 2.708-7.97 7.83-14.734 14.58-19.248 3.655-2.444 5.076-3.155 9.12-4.563 5.538-1.93 8.703-2.462 15.76-2.656 9.44-.26 17.306.74 26.684 3.394 8.752 2.476 14.593 4.813 33.31 13.328 6.71 3.052 13.91 6.264 16 7.138 5.323 2.225 14.95 5.29 15.882 5.056.413-.104 2.616-2.082 4.896-4.397 7.502-7.618 11.604-10.613 17.346-12.665 6.77-2.42 15.36-2.724 20.684-.732 2.173.813 4.465 2.954 5.39 5.035 2.128 4.782.222 11.918-4.412 16.517-4.46 4.426-9.31 6.142-19.504 6.897-5.172.383-6.277.658-6.986 1.74-.976 1.49-4.48 15.337-5.8 22.917-1.127 6.474-1.686 12.058-2.082 20.8-.542 11.963-.968 28.852-.97 38.48l-.002 8.88 2.64-.002c7.423-.008 13-1.098 17.044-3.333 3.127-1.728 8.242-6.91 9.816-9.944 1.815-3.497 2.27-5.473 2.13-9.27-.113-3.003-.22-3.462-1.313-5.676-1.273-2.574-3.082-4.687-4.753-5.55-.566-.294-1.833-.604-2.817-.69-3.99-.35-7.54 2.16-9.938 7.027-2.86 5.804-2.408 12.41 1.174 17.103 1.562 2.047.707 1.67-1.773-.782-3.466-3.425-4.837-7.16-4.843-13.2-.01-8.405 4.585-17.06 10.49-19.765 3.3-1.51 8.02-1.34 11.747.422 5.457 2.582 8.834 9.333 8.875 17.744.043 8.856-3.908 16.89-11.172 22.72-6.188 4.968-13.58 7.447-23.553 7.9-4.123.188-4.475.253-4.722.872-.147.368-.5 3.19-.785 6.27-1.023 11.067-3.21 24.347-5.77 35.04-4.197 17.53-9.65 28.05-19.404 37.442-10.114 9.738-22.144 15.102-38.674 17.243-4.915.637-10.916.833-15.115.493zm23.274-13.08c4.735-1.244 9.14-3.204 13.003-5.786 2.928-1.956 11.544-10.71 14.638-14.873 2.952-3.97 5.768-9.385 6.74-12.96 2.948-10.857 4.29-21.987 4.823-39.992.24-8.16.222-10.47-.088-10.756-.415-.382-4.988-1.092-7.023-1.09-1.13 0-1.205.065-1.53 1.36-1.93 7.663-6.553 16.49-11.69 22.32-7.24 8.212-19.015 15.254-28.864 17.26-14.276 2.91-26.58-4.003-29.845-16.77-.81-3.172-.81-5.01 0-7.577 1.136-3.587 1.327-3.59 2.66-.025.64 1.71 1.526 4.263 1.968 5.67 1.577 5.03 3.98 8.107 7.835 10.036 12.778 6.395 30.346-3.555 39.03-22.106 2.28-4.872 4.852-13.174 4.253-13.732-.43-.402-10.452-1.615-11.696-1.416-3.215.514-5.972 3.125-5.972 5.655 0 1.193 1.333 3.64 2.25 4.13.347.185.63.487.63.67 0 .472-1.762.046-3.558-.86-2.724-1.37-3.988-3.645-3.734-6.712.224-2.7 1.284-3.992 4.63-5.644l2.793-1.38 7.89.064 7.89.063.205-1.95c.554-5.3-.06-11.563-1.58-16.096-3.907-11.66-12.923-18.726-23.882-18.716-8.666.008-19.52 4.335-27.834 11.097-6.115 4.974-11.36 12.165-16.293 22.34-3.762 7.76-5.89 14.532-7.214 22.946-.79 5.022-.792 16.793-.005 22.175 2.926 20 10.274 34.69 21.625 43.222 5.43 4.082 16.157 8.738 22.427 9.735 1.32.21 2.616.434 2.88.498.264.064 2.64.062 5.28-.004 3.542-.087 5.47-.295 7.36-.79zm79.074-190.578c3.987-1.01 8.003-2.917 9.69-4.603.713-.715 1.737-2.17 2.274-3.233 1.984-3.93 1.556-6.374-1.37-7.832-1.82-.907-3.566-1.022-5.433-.356-3.603 1.285-7.867 5.007-10.65 9.296-1.7 2.62-3.39 5.794-3.82 7.176l-.24.77 3.19-.21c1.756-.114 4.617-.57 6.36-1.01z" stroke-width=".32"/><path d="M958.408 254.045c-.704-.25-1.88-1.085-2.61-1.857-2.76-2.91-2.695-6.684.166-9.546 2.938-2.938 6.75-2.938 9.688 0 2.938 2.938 2.938 6.75 0 9.688-2.116 2.116-4.51 2.683-7.244 1.715zm9.6-19.2c-2.45-.867-4.636-3.96-4.636-6.56 0-3.58 3.455-7.035 7.036-7.035 3.58 0 7.037 3.455 7.037 7.036 0 1.763-.735 3.386-2.193 4.844-2.116 2.116-4.51 2.683-7.244 1.715zm3.84-21.12c-2.45-.867-4.636-3.96-4.636-6.56 0-3.58 3.455-7.035 7.036-7.035 3.58 0 7.037 3.455 7.037 7.036 0 1.763-.735 3.386-2.193 4.844-2.116 2.116-4.51 2.683-7.244 1.715zm1.92-23.04c-.704-.25-1.88-1.085-2.61-1.857-2.76-2.91-2.695-6.684.166-9.546 2.938-2.938 6.75-2.938 9.688 0 2.938 2.938 2.938 6.75 0 9.688-2.116 2.116-4.51 2.683-7.244 1.715z" stroke-width=".32"/><path d="M215.18 465.522c-7.48-1.03-12.56-5.83-15.4-14.552-1.683-5.176-1.984-7.975-1.54-14.316.49-6.995 1.244-6.452-8.55-6.168-19.23.556-34.605-2.214-48.125-8.67-5.632-2.688-9.157-5.076-12.695-8.6-4.666-4.645-7.54-9.243-9.4-15.045-1.422-4.423-1.75-6.637-1.73-11.68.067-17.806 11.122-34.594 30.404-46.17 8.695-5.218 20.025-9.92 29.12-12.083 1.554-.37 4.41-1.088 6.345-1.596 16.434-4.312 38.724-5.452 65.12-3.33 30.17 2.425 80.782 12.55 134.118 26.828 15.012 4.02 21.92 6.013 31.16 8.994 33.08 10.672 63.257 18.49 92.536 23.972 12.762 2.39 18.95 2.59 25.353.814 5.935-1.645 11.005-5.556 13.54-10.445 2.09-4.03 2.652-6.22 2.652-10.342 0-3.476-.058-3.8-1.026-5.842-1.275-2.69-3.807-5.41-6.067-6.516-2.08-1.02-6.59-1.42-8.58-.764-3.202 1.057-5.973 5.67-4.03 6.71.872.468 1.942.413 1.942-.098 0-.916 1.302-1.65 2.887-1.627 3.86.058 5.93 4.486 4 8.557-1.842 3.88-7.413 3.417-11.94-.993-3.778-3.68-4.468-8.187-2.04-13.315 2.623-5.537 6.953-8.18 12.736-7.77 8.954.63 15.675 6.335 18.557 15.75.796 2.6.88 3.346.896 7.99.02 5.425-.227 6.786-1.922 10.636-1.552 3.527-5.63 8.63-8.803 11.013-9.645 7.25-28.463 9.103-54.53 5.37-10.188-1.46-25.987-4.796-36.32-7.67-2.553-.71-9.61-2.57-15.68-4.13-15.112-3.883-22.37-5.843-46.88-12.657-31.403-8.73-40.91-11.25-54.27-14.376-50.268-11.767-93.99-14.327-136.738-8.006-15.752 2.33-25.687 5.194-36.072 10.4-14.037 7.036-26.548 18.34-31.757 28.69-3.612 7.18-4.166 13.35-1.66 18.49 1.347 2.765 3.037 4.555 7.278 7.71 7.82 5.822 19.37 10.112 31.94 11.867 8.308 1.16 28.655.433 30.653-1.095.406-.31 1.42-2.148 2.27-4.108 3.974-9.184 11.597-20.208 19.865-28.726 6.596-6.797 14.645-12.292 26.35-17.992 5.528-2.69 7.56-3.178 13.18-3.163 3.918.01 4.715.105 6.35.754 4.183 1.66 6.84 5.02 7.164 9.065.216 2.686-.375 4.7-2.965 10.102-5.254 10.963-12.445 19.126-21.864 24.82-2.663 1.61-13.516 6.79-19.773 9.438-7.275 3.08-14.274 5.424-22.08 7.4-2.22.562-2.644 1.125-3.498 4.658-.445 1.836-.773 4.158-.773 5.47-.003 6.223 4.405 16.475 8.195 19.062 2.347 1.603 5.647 1.79 7.173.41.724-.655.776-1.082.267-2.2-.302-.662-.52-.766-1.29-.613-2.643.528-4.176-4.326-2.35-7.443 1.83-3.122 6.656-4.192 9.038-2.003 2.595 2.385 3.052 9.43.89 13.7-.975 1.92-3.856 4.565-5.52 5.063-1.9.57-3.837.688-6.113.375zm3.14-47.395c15.788-4.72 24.834-9.097 33.22-16.078 6.765-5.63 14.143-15.194 15.418-19.986.457-1.714.2-2.978-.857-4.235-2.088-2.483-5.436-2.882-10.353-1.235-15.087 5.055-29.235 16.34-38.678 30.856-1.923 2.955-6.74 11.86-6.74 12.46 0 .46 1.907.036 7.99-1.783z" stroke-width=".32"/><path d="M489.322 411.27c-2.45-.866-4.637-3.96-4.637-6.558 0-3.58 3.456-7.037 7.037-7.037 3.58 0 7.036 3.456 7.036 7.037 0 1.763-.734 3.386-2.192 4.844-2.116 2.115-4.51 2.682-7.244 1.715zm-23.04-3.84c-.704-.248-1.88-1.084-2.612-1.856-2.76-2.91-2.693-6.685.168-9.546 2.938-2.938 6.75-2.938 9.688 0 2.938 2.938 2.938 6.75 0 9.688-2.116 2.115-4.51 2.682-7.244 1.715zm-23.04-5.76c-.704-.248-1.88-1.084-2.612-1.856-2.76-2.91-2.693-6.685.168-9.546 2.938-2.938 6.75-2.938 9.688 0 2.938 2.938 2.938 6.75 0 9.688-2.116 2.115-4.51 2.682-7.244 1.715zm-24.96-5.76c-.704-.248-1.88-1.084-2.612-1.856-2.76-2.91-2.693-6.685.168-9.546 2.938-2.938 6.75-2.938 9.688 0 2.938 2.938 2.938 6.75 0 9.688-2.116 2.115-4.51 2.682-7.244 1.715zm-23.04-5.76c-.704-.248-1.88-1.084-2.612-1.856-2.76-2.91-2.693-6.685.168-9.546 2.938-2.938 6.75-2.938 9.688 0 2.938 2.938 2.938 6.75 0 9.688-2.116 2.115-4.51 2.682-7.244 1.715zm-23.04-5.76c-.704-.248-1.88-1.084-2.612-1.856-2.76-2.91-2.693-6.685.168-9.546 2.938-2.938 6.75-2.938 9.688 0 2.938 2.938 2.938 6.75 0 9.688-2.116 2.115-4.51 2.682-7.244 1.715zm-23.04-5.76c-.704-.248-1.88-1.084-2.612-1.856-2.76-2.91-2.693-6.685.168-9.546 2.938-2.938 6.75-2.938 9.688 0 2.938 2.938 2.938 6.75 0 9.688-2.116 2.115-4.51 2.682-7.244 1.715zm-23.04-5.76c-.704-.248-1.88-1.084-2.612-1.856-2.76-2.91-2.693-6.685.168-9.546 2.938-2.938 6.75-2.938 9.688 0 2.938 2.938 2.938 6.75 0 9.688-2.116 2.115-4.51 2.682-7.244 1.715z" stroke-width=".32"/><path d="M821.68 466.31c-1.292-.31-3.413-2.2-4.182-3.72-1.297-2.568-.74-8.848 1.88-21.136 3.148-14.78 4.072-19.842 4.644-25.44.25-2.455 1.403-11.46 2.415-18.88.998-7.316 2.055-13.81 2.474-15.2.39-1.29.545-1.45 1.493-1.542 1.925-.187 2.553.98 3.243 6.022.205 1.496.43 3.44.504 4.32.072.88.196 1.888.276 2.24.632 2.79 1.048 15.93 1.28 40.48.14 14.497.1 16.14-.453 19.36-1.115 6.493-2.67 9.764-5.735 12.062-1.1.825-2.2 1.425-2.444 1.33-.244-.092-.63-.048-.858.1-.568.367-3.028.37-4.536.005zm77.08-10.204c-2.188-.435-3.906-1.268-4.578-2.22-.23-.325-.662-.596-.96-.6-.674-.013-2.942-3.084-2.942-3.985 0-.365-.187-.947-.416-1.295-.877-1.33-2.297-8.757-2.6-13.604-.095-1.502-.25-5.102-.344-8-.237-7.293-.428-9.907-.98-13.426-.72-4.597-2.58-14.628-3.678-19.84-.538-2.552-1.035-4.928-1.104-5.28-.33-1.685-.55-2.977-.68-4-.08-.616-.367-2.755-.64-4.754-.27-2-.517-6.08-.545-9.068-.052-5.372-.044-5.44.712-6.053.48-.39 1.016-.55 1.44-.43 1.02.29 2.435 2.077 2.435 3.073 0 .48.144.962.32 1.07.176.11.32.614.32 1.12 0 .508.144 1.012.32 1.12.176.11.32.54.32.954 0 .416.2 1.163.445 1.66.582 1.188 1.172 2.96 1.295 3.89.053.408.26.905.46 1.104.198.2.36.737.36 1.194 0 .458.156.987.345 1.177.19.19.465.832.612 1.425.248 1.003.716 2.422 1.304 3.96.136.35.493 1.43.795 2.4.3.967.725 2.263.94 2.88.995 2.83 1.21 3.48 1.752 5.28.318 1.055.724 2.28.902 2.72.178.44.497 1.447.708 2.24.21.79.586 1.912.833 2.49.248.578.45 1.326.45 1.66 0 .337.144.7.32.81.176.108.32.612.32 1.12 0 .506.144 1.01.32 1.12.176.108.32.612.32 1.12 0 .506.144 1.01.32 1.12.176.108.32.502.32.875 0 .64.416 2.168.98 3.604.14.352.324 1 .412 1.44.69 3.448 2.418 9.666 2.798 10.064.16.167.29.56.29.87 0 .31.2 1.037.447 1.615.245.578.837 2.347 1.316 3.93.478 1.585.943 3.097 1.033 3.36.09.265.372 1.345.627 2.4 1.123 4.653 1.353 9.403.57 11.794-1.288 3.94-4.802 6.534-7.993 5.9zm-119.096-28.32c-.56-.07-1.188-.336-1.4-.59-.21-.254-.568-.462-.796-.462-.228 0-.85-.552-1.386-1.228-.77-.972-1.018-1.665-1.19-3.33-.205-2.018-.16-2.22 1.143-4.933 1.726-3.598 2.878-6.462 4.863-12.09.872-2.475 1.773-5.003 2-5.62.23-.615.79-2.127 1.245-3.36.457-1.23 1.34-3.287 1.964-4.567.623-1.28 1.133-2.452 1.133-2.602 0-.15.5-.655 1.11-1.12 1.375-1.05 2.422-.872 3.543.598.88 1.155.878 2.484-.012 6.555-.25 1.153-.968 5.41-1.59 9.457-1.425 9.253-2.922 17.94-3.314 19.227-.165.544-.657 1.552-1.092 2.242-.63.995-1.1 1.338-2.283 1.654-1.474.394-1.965.415-3.936.17zM960.2 398.2c-.704-.15-1.496-.367-1.76-.48-.264-.114-.64-.182-.837-.152-.196.03-.538-.163-.76-.43-.22-.266-.577-.484-.792-.484-.214 0-.65-.288-.97-.64-.318-.352-.745-.64-.948-.64-.86 0-5.396-4.993-8.657-9.53-1.933-2.69-3.567-5.132-3.63-5.43-.066-.296-.462-.99-.88-1.54-.42-.55-.765-1.14-.765-1.308 0-.17-.936-1.594-2.08-3.164-1.144-1.57-2.08-3.04-2.08-3.266 0-.534-.443-1.29-2.48-4.22-.924-1.33-1.683-2.634-1.687-2.9-.004-.265-.288-.842-.633-1.282-.344-.44-.63-.906-.632-1.035-.004-.13-1.592-2.38-3.528-5.003-1.936-2.622-3.52-5.065-3.52-5.43 0-.923 2.007-2.41 2.88-2.133.368.117 2.292 1.82 4.275 3.786 1.984 1.966 3.957 3.878 4.386 4.25.43.372 1.26 1.2 1.846 1.84.587.64 1.235 1.168 1.44 1.172.206.004.798.58 1.316 1.28.518.7 1.07 1.272 1.23 1.272.157 0 1.03.72 1.937 1.6.907.878 2.298 2.18 3.09 2.89.792.708 2.047 1.86 2.788 2.56.74.7 1.512 1.27 1.714 1.27.2 0 .65.36.996.8.346.44.81.8 1.03.8.22 0 .74.36 1.152.8.414.44.92.8 1.127.8.206 0 .635.288.953.64.32.352.748.64.954.64.206 0 .713.36 1.126.8.414.44.92.8 1.127.8.206 0 .635.288.953.64.32.352.748.64.954.64.206 0 .713.36 1.126.8.414.44.887.8 1.052.8.39 0 2.137 1.406 3.842 3.09 2.67 2.635 3.222 4.554 2.437 8.46-.452 2.26-1.63 3.94-3.81 5.428-1.92 1.314-3.31 1.632-5.28 1.21zm22.807-65.406c-.1-.1-.628-.193-1.175-.21-.547-.014-1.155-.22-1.352-.46-.197-.236-.513-.43-.702-.43-.19 0-1.864-1.56-3.72-3.464-1.858-1.906-4.53-4.52-5.938-5.808-3.587-3.282-5.353-5.65-5.126-6.872.23-1.23 1.282-2.33 2.485-2.593.873-.192 1.767.053 3.12.856.555.33 2.18 1.11 2.88 1.38.264.104.912.464 1.44.8.528.34 1.195.625 1.48.638.288.014.7.24.92.504.22.264.64.48.936.48.295 0 .716.18.936.4.22.22.5.41.624.42.124.01.782.262 1.464.56.68.297 1.367.54 1.524.54 1.145 0 4.328 2.957 5.11 4.747 1.375 3.144.223 6.002-3.186 7.907-1.586.886-1.48.85-1.72.607z" stroke-width=".32"/></svg>