<?xml version="1.0" encoding="utf-8"?>
<!-- Generator: Adobe Illustrator 18.1.0, SVG Export Plug-In . SVG Version: 6.00 Build 0)  -->
<!DOCTYPE svg PUBLIC "-//W3C//DTD SVG 1.1//EN" "http://www.w3.org/Graphics/SVG/1.1/DTD/svg11.dtd">
<svg version="1.1" id="Layer_1" xmlns="http://www.w3.org/2000/svg" xmlns:xlink="http://www.w3.org/1999/xlink" x="0px" y="0px"
	 viewBox="0 0 311.3 120.9" enable-background="new 0 0 311.3 120.9" xml:space="preserve">
<g>
	<path fill="#FB7598" d="M108.7,21.7c-4.5,0-7.4-1.3-10.5-4.5l1.7-1.7c2.7,2.7,4.9,3.7,8.7,3.7c2.5,0,7.4-0.7,7.4-4.2
		c0-2.5-2.6-3.5-4.7-3.5l-4.4-0.1c-2.6,0-3.9-0.3-5.1-1.1c-1.4-0.9-2.1-2.5-2.1-4.1c0-4.6,5.1-6.2,8.9-6.2c3.4,0,6.1,1,8.7,3
		L115.9,5c-2.4-1.7-4.4-2.5-7.3-2.5c-2.2,0-6.4,0.9-6.4,3.8c0,0.9,0.5,1.7,1.2,2.1c0.9,0.5,1.6,0.6,4.2,0.7l3.1,0
		c1.4,0,2.9,0.1,4.2,0.7c2.1,0.9,3.6,3.1,3.6,5.4C118.5,20.1,112.8,21.7,108.7,21.7z"/>
	<path fill="#FB7598" d="M145.6,21.1v-9.6h-13.3v9.6h-2.5V0.5h2.5v8.7h13.3V0.5h2.5v20.7H145.6z"/>
	<path fill="#FB7598" d="M171.6,21.7c-6,0-11.1-4.6-11.1-10.8c0-6.2,5.2-10.9,11.3-10.9c6.1,0,11.1,4.6,11.1,10.8
		C182.8,17.1,177.8,21.7,171.6,21.7z M171.8,2.5c-4.8,0-8.8,3.5-8.8,8.4c0,4.8,4,8.3,8.7,8.3c4.8,0,8.7-3.5,8.7-8.4
		C180.3,6,176.5,2.5,171.8,2.5z"/>
	<path fill="#FB7598" d="M211,11.1c-1.3,1-2.9,1.2-4.5,1.2h-9v8.8h-2.4V0.5h11.5c3.9,0,6.5,1.8,6.5,5.9C213.1,8.1,212.4,10,211,11.1
		z M209.2,3.3c-0.5-0.3-1.1-0.4-2.6-0.4h-9v7h9c2.5,0,4.1-0.9,4.1-3.5C210.7,5.2,210.2,4,209.2,3.3z"/>
</g>
<g>
	<path fill="#EF4872" d="M32.5,41.8c-2.4,7.1,1.9,15.9,6.3,25.3c3,6.7,5,13.9,4.2,21.1c8,4.9,15.3,11.7,21.9,18.6
		c7.5,7.8-2.1,14.6-2.4,14.1c-5.3-9.9-13-19.4-21.1-26.1c-0.2,0.8-0.6,1.5-1,2.2c-5.4,11.1-21.3,17.7-31.7,11.6
		c-11.1-6.3-9.6-24.9,8.3-27.1c5.4-0.6,10.5,0.1,15.5,1.7c-0.7-3.5-2.3-7.4-4.4-12.1c-4.9-10.6-6.8-21.6-1.6-30.4
		c4.8-8,15.8-9.9,21.7-7.1c11.6,5.4,9.7,19.3,3.2,23.6c-8.5,5.7-12.6-4.8-12.6-4.8c11.6-2.7,12.7-13.1,7.1-15.8
		C40.7,34.2,34.2,36.7,32.5,41.8z M33.1,89.2c-5.6-3.1-11.2-4.5-16.1-3.6c-10.8,2.1-11.5,13-3.2,16.5c7,3,14-0.9,17.7-7.6
		C32.5,92.9,33,91,33.1,89.2z M88.8,60.2c4.3-2,10.8,0.4,9.7,7C96.7,79.8,83,96.7,74.2,93.3c-2.8-1-5.3-5.4-6-11.9
		c-1.5,4.9-5.7,12.9-11.5,12.2c-6.1-0.7-7.6-8.4-5.1-18.4c2.9-11.2,1.7-14.1,1.7-14.1c9.6-3.2,10.9,2,7.8,13
		c-2.4,8.8-2.8,13.8-0.7,14.4c2,0.5,5.2-3.7,7.7-12.7c0.1-1.5,0.3-2.9,0.6-4.5c1.7-9.9,10.4-10.6,13.5-7.4c0,0-2.9,2.8-4.6,11.9
		c-1.3,6.6-1,13.8,2.1,14.4c2.8,0.4,7.1-5.7,8.9-19.3c0.8-6.4,0.4-9.9,0.2-10.6L88.8,60.2z M111.2,80.8c8.2-3.5,8.6-17.5,5.7-18.3
		c-3-0.9-6.1,6.6-7.4,11.6c-1.6,6.1-1.2,14.4,4.6,15.6c6.2,1.3,13.6-3.8,15.8-9.9c0,0,0-0.1,0.1-0.1c1.4-0.4,2.5,0.5,1.6,2.9
		c-3,7.7-12.4,13.4-21.9,11.3c-5.6-1.3-11.7-8.3-9.8-18.8c2-10.5,9.6-17.5,19.2-15.8c13.6,2.5,9.6,18.4-8,24.2
		C111,83.6,108.4,82,111.2,80.8z M140,80.8c8.2-3.5,8.6-17.5,5.7-18.3c-3-0.9-6.1,6.6-7.4,11.6c-1.6,6.1-1.2,14.4,4.6,15.6
		c6.2,1.3,13.6-3.8,15.8-9.9c0,0,0-0.1,0.1-0.1c1.4-0.4,2.5,0.5,1.6,2.9c-3,7.7-12.4,13.4-21.9,11.3c-5.6-1.3-11.7-8.3-9.8-18.8
		c2-10.5,9.6-17.5,19.2-15.8c13.6,2.5,9.6,18.4-8,24.2C139.8,83.6,137.2,82,140,80.8z M170,52.7c3.5-0.1,6.8-0.4,10-1.2
		c0.3-0.1,0.7-0.1,0.9-0.2c3.1,1.1,2.6,5.2-2.4,6.1c-3.3,0.7-6.8,0.9-10.2,0.8c-0.8,3.2-1.5,6.8-2.2,11.3
		c-1.1,7.2-1.8,18.9,0.3,19.7c2.2,0.8,5.3-4.1,7.2-9.3c0,0,0,0,0.1-0.1c1.4-0.4,2.5,0.6,1.6,2.9c-2.8,7.1-8.7,12.9-13.6,10.7
		c-4.8-2.1-6-14-4.9-23.9c0.4-4.1,1-8.2,1.7-11.9c-17.4-2.1-35.9-8.2-53.5-4.9c-7.9,1.3-10.3,4.9-10.3,4.9c-3.6-3.8-3-12.8,7-14.2
		c17.3-2.3,38.4,6.3,58.2,8.8c1-3.2,2.2-5.8,3.6-7.2c5.6-5.1,10.1-0.3,10.1-0.3S171.9,47.1,170,52.7z M217.9,68
		c-2.7,2.4-6.1,4.2-9.7,5.6c-1,5.3-2.2,9.8-3.8,13.5c1.5,0.7,3.2,1.5,4.7,2.4c26.7,16,59.2,22.8,73.2,12.4c0,0,3.1,8.9-2.9,12.7
		c-16.4,10.5-47.6-3-74.9-21.4c-0.8-0.5-1.6-1-2.5-1.5c-2.5,3.8-5.7,6.6-10.2,8.3c-9.6,3.7-18.7-4.1-13.6-10.5
		c3.8-4.9,10.8-6.6,18.5-5c0.8-2.4,1.3-5.1,1.9-8.1c-6.9,1.4-13.5,1.5-17.2,0.2c-9.7-3.2-4.1-13.3-4.1-13.3c3.5,2.9,13,5.4,22.5,4.9
		c0.1-0.7,0.1-1.4,0.2-2.1c3.3-29.4,21.4-41.2,29.8-35.4C237.3,36.1,233.7,55,217.9,68z M195.1,88.9c-4.3-1.2-7.7-0.7-9.3,0.7
		c-2.6,2.4,1.2,5.2,4.9,4C192.5,92.9,193.9,91.3,195.1,88.9z M209.4,66.5c2.1-0.7,4.1-1.5,5.9-2.7c11.8-7.7,16.2-27,11.2-30.1
		c-4.4-2.7-13.5,8.1-16.9,31.5L209.4,66.5z M237.2,88.4c2,0.6,5.2-3.8,7.7-12.7c0-3.5,0.3-7.2,1-11.3c1.7-10.7,8.4-11.7,12.7-7.4
		c0,0-3.5,10.8-4.9,18.9c-1.3,6.6-1,13.2,1.4,13.5c2.4,0.2,5.3-4.2,7.2-9.5h0.1c1.3-0.4,2.5,0.5,1.6,2.9
		c-3.2,8.2-8.8,12.6-13.6,10.7c-2.8-1-4.8-5.5-5.3-12.2c-1.5,4.9-5.7,13.2-11.6,12.4c-6.1-0.7-7.6-8.4-5-18.4
		c2.9-11.2,1.6-14.1,1.6-14.1c9.7-3.2,10.9,2,7.8,13C235.4,82.8,235.1,87.9,237.2,88.4z M271.3,68.9c-1.3,7.1-1.9,19.4,0.1,20.2
		c2.3,0.9,5.4-4,7.3-9.3h0.1c1.3-0.4,2.5,0.5,1.6,2.9c-2.8,7.1-8.7,12.8-13.6,10.7c-4.7-2.1-5.7-14-4.6-23.9
		c1.2-10.9,3.8-23.2,6.8-27.6c4.9-6.6,11.4,1.2,11.4,1.2S274.7,49.3,271.3,68.9z M287.8,88.4c1.9,0.5,5-3.5,7.4-11.8
		c0.2-2.4,0.5-5,1-7.9c1.7-10.8,8.5-11.8,12.7-7.4c0,0-3.2,6.3-4.7,14.4c-1.9,10.8-1.2,19.9,1.8,21.5c2.9,1.6,5.2-0.1,5.2-0.1
		c0.7,3.2-2,6.7-7.7,5.6c-5-0.9-8.8-6-8.5-19.2c-2,4.6-5.8,10.7-10.8,10c-6.2-0.7-7.6-8.3-5-18.3C282,64,280.7,61,280.7,61
		c9.6-3.2,10.9,2,7.8,13.1C286,82.8,285.7,87.9,287.8,88.4z"/>
	<path fill="#F27999" d="M30.8,40.3c-2.4,7.1,1.9,15.9,6.3,25.3c3,6.7,5,13.9,4.2,21.1c8,4.9,15.3,11.7,21.9,18.6
		c7.5,7.8-2.1,14.6-2.4,14.1c-5.3-9.9-13-19.4-21.1-26.1c-0.2,0.8-0.6,1.5-1,2.2c-5.4,11.1-21.3,17.7-31.7,11.6
		c-11.1-6.3-9.6-24.9,8.3-27.1c5.4-0.6,10.5,0.1,15.5,1.7c-0.7-3.5-2.3-7.4-4.4-12.1c-4.9-10.6-6.8-21.6-1.6-30.4
		c4.8-8,15.8-9.9,21.7-7.1c11.6,5.4,9.7,19.3,3.2,23.6C41.2,61.5,37.1,51,37.1,51c11.6-2.7,12.7-13.1,7.1-15.8
		C39,32.8,32.5,35.3,30.8,40.3z M31.4,87.8c-5.6-3.1-11.2-4.5-16.1-3.6c-10.8,2.1-11.5,13-3.2,16.5c7,3,14-0.9,17.7-7.6
		C30.8,91.4,31.3,89.6,31.4,87.8z M87.2,58.7c4.3-2,10.8,0.4,9.7,7c-1.8,12.6-15.6,29.5-24.4,26.1c-2.8-1-5.3-5.4-6-11.9
		c-1.5,4.9-5.7,12.9-11.5,12.2c-6.1-0.7-7.6-8.4-5.1-18.4c2.9-11.2,1.7-14.1,1.7-14.1c9.6-3.2,10.9,2,7.8,13
		c-2.4,8.8-2.8,13.8-0.7,14.4c2,0.5,5.2-3.7,7.7-12.7c0.1-1.5,0.3-2.9,0.6-4.5c1.7-9.9,10.4-10.6,13.5-7.4c0,0-2.9,2.8-4.6,11.9
		c-1.3,6.6-1,13.8,2.1,14.4c2.8,0.4,7.1-5.7,8.9-19.3c0.8-6.4,0.4-9.9,0.2-10.6L87.2,58.7z M109.5,79.4c8.2-3.5,8.6-17.5,5.7-18.3
		c-3-0.9-6.1,6.6-7.4,11.6c-1.6,6.1-1.2,14.4,4.6,15.6c6.2,1.3,13.6-3.8,15.8-9.9c0,0,0-0.1,0.1-0.1c1.4-0.4,2.5,0.5,1.6,2.9
		c-3,7.7-12.4,13.4-21.9,11.3c-5.6-1.3-11.7-8.3-9.8-18.8c2-10.5,9.6-17.5,19.2-15.8c13.6,2.5,9.6,18.4-8,24.2
		C109.3,82.2,106.7,80.6,109.5,79.4z M138.3,79.4c8.2-3.5,8.6-17.5,5.7-18.3c-3-0.9-6.1,6.6-7.4,11.6c-1.6,6.1-1.2,14.4,4.6,15.6
		c6.2,1.3,13.6-3.8,15.8-9.9c0,0,0-0.1,0.1-0.1c1.4-0.4,2.5,0.5,1.6,2.9c-3,7.7-12.4,13.4-21.9,11.3c-5.6-1.3-11.7-8.3-9.8-18.8
		c2-10.5,9.6-17.5,19.2-15.8c13.6,2.5,9.6,18.4-8,24.2C138.1,82.2,135.5,80.6,138.3,79.4z M168.3,51.2c3.5-0.1,6.8-0.4,10-1.2
		c0.3-0.1,0.7-0.1,0.9-0.2c3.1,1.1,2.6,5.2-2.4,6.1c-3.3,0.7-6.8,0.9-10.2,0.8c-0.8,3.2-1.5,6.8-2.2,11.3
		c-1.1,7.2-1.8,18.9,0.3,19.7c2.2,0.8,5.3-4.1,7.2-9.3c0,0,0,0,0.1-0.1c1.4-0.4,2.5,0.6,1.6,2.9c-2.8,7.1-8.7,12.9-13.6,10.7
		c-4.8-2.1-6-14-4.9-23.9c0.4-4.1,1-8.2,1.7-11.9c-17.4-2.1-35.9-8.2-53.5-4.9C95.6,52.5,93.1,56,93.1,56c-3.6-3.8-3-12.8,7-14.2
		c17.3-2.3,38.4,6.3,58.2,8.8c1-3.2,2.2-5.8,3.6-7.2c5.6-5.1,10.1-0.3,10.1-0.3S170.3,45.7,168.3,51.2z M216.3,66.6
		c-2.7,2.4-6.1,4.2-9.7,5.6c-1,5.3-2.2,9.8-3.8,13.5c1.5,0.7,3.2,1.5,4.7,2.4c26.7,16,59.2,22.8,73.2,12.4c0,0,3.1,8.9-2.9,12.7
		c-16.4,10.5-47.6-3-74.9-21.4c-0.8-0.5-1.6-1-2.5-1.5c-2.5,3.8-5.7,6.6-10.2,8.3c-9.6,3.7-18.7-4.1-13.6-10.5
		c3.8-4.9,10.8-6.6,18.5-5c0.8-2.4,1.3-5.1,1.9-8.1c-6.9,1.4-13.5,1.5-17.2,0.2c-9.7-3.2-4.1-13.3-4.1-13.3c3.5,2.9,13,5.4,22.5,4.9
		c0.1-0.7,0.1-1.4,0.2-2.1c3.3-29.4,21.4-41.2,29.8-35.4C235.6,34.7,232,53.6,216.3,66.6z M193.4,87.5c-4.3-1.2-7.7-0.7-9.3,0.7
		c-2.6,2.4,1.2,5.2,4.9,4C190.8,91.5,192.3,89.9,193.4,87.5z M207.7,65.1c2.1-0.7,4.1-1.5,5.9-2.7c11.8-7.7,16.2-27,11.2-30.1
		c-4.4-2.7-13.5,8.1-16.9,31.5L207.7,65.1z M235.5,87c2,0.6,5.2-3.8,7.7-12.7c0-3.5,0.3-7.2,1-11.3c1.7-10.7,8.4-11.7,12.7-7.4
		c0,0-3.5,10.8-4.9,18.9c-1.3,6.6-1,13.2,1.4,13.5c2.4,0.2,5.3-4.2,7.2-9.5h0.1c1.3-0.4,2.5,0.5,1.6,2.9
		c-3.2,8.2-8.8,12.6-13.6,10.7c-2.8-1-4.8-5.5-5.3-12.2c-1.5,4.9-5.7,13.2-11.6,12.4c-6.1-0.7-7.6-8.4-5-18.4
		c2.9-11.2,1.6-14.1,1.6-14.1c9.7-3.2,10.9,2,7.8,13C233.8,81.4,233.4,86.4,235.5,87z M269.6,67.4c-1.3,7.1-1.9,19.4,0.1,20.2
		c2.3,0.9,5.4-4,7.3-9.3h0.1c1.3-0.4,2.5,0.5,1.6,2.9c-2.8,7.1-8.7,12.8-13.6,10.7c-4.7-2.1-5.7-14-4.6-23.9
		c1.2-10.9,3.8-23.2,6.8-27.6c4.9-6.6,11.4,1.2,11.4,1.2S273,47.8,269.6,67.4z M286.1,87c1.9,0.5,5-3.5,7.4-11.8
		c0.2-2.4,0.5-5,1-7.9c1.7-10.8,8.5-11.8,12.7-7.4c0,0-3.2,6.3-4.7,14.4c-1.9,10.8-1.2,19.9,1.8,21.5c2.9,1.6,5.2-0.1,5.2-0.1
		c0.7,3.2-2,6.7-7.7,5.6c-5-0.9-8.8-6-8.5-19.2c-2,4.6-5.8,10.7-10.8,10c-6.2-0.7-7.6-8.3-5-18.3c2.9-11.2,1.6-14.2,1.6-14.2
		c9.6-3.2,10.9,2,7.8,13.1C284.4,81.4,284.1,86.4,286.1,87z"/>
	<g>
		<path fill="#EF4872" d="M290.7,106.6c-2,0-3.6-1.6-3.6-3.6c0-2,1.6-3.6,3.6-3.6c2,0,3.6,1.6,3.6,3.6
			C294.4,105,292.7,106.6,290.7,106.6z M290.7,100c-1.7,0-3,1.4-3,3c0,1.7,1.4,3,3,3c1.7,0,3-1.3,3-3
			C293.8,101.3,292.4,100,290.7,100z M292.2,103.1c-0.1,0.1-0.3,0.2-0.4,0.2l0.8,1.5h-0.7l-0.8-1.5h-1.2v1.5h-0.6V101h1.8
			c0.6,0,0.7,0,1,0.2c0.3,0.2,0.5,0.6,0.5,1C292.6,102.5,292.4,102.8,292.2,103.1z M291.3,101.6h-1.5v1.1h1.4c0.3,0,0.4,0,0.5-0.1
			c0.1-0.1,0.2-0.3,0.2-0.4C292,101.8,291.7,101.6,291.3,101.6z"/>
	</g>
</g>
</svg>
