<svg xmlns="http://www.w3.org/2000/svg" width="1200" height="320" viewBox="204 147 1200 320" enable-background="new 204 147 1200 320">
    <path d="M474.182 207.102c-6.675-.67-9.65 1.018-13.002 5.279-31.867 39.974-58.197 73.528-83.979 112.672 5.944-32.742 12.385-65.766 15.78-88.67 2.59-13.924 1.747-20.264-5.368-24.487-4.744-2.816-12.034-5.498-18.468-6.438-2.573-.375-4.812.764-7.707 3.979-22.631 26.21-82.71 122.309-112.958 178.54-2.092 3.939-3.205 7.063-3.111 8.846.093 1.782.896 2.507 3.189 2.387 5.348-.28 14.395-3.053 17.465-7.812 22.619-36.169 54.756-85.604 88.446-129.759-7.177 33.572-15.228 74.851-21.267 110.662-2.188 11.861 1.282 14.743 7.904 14.396 4.838-.253 11.379-2.128 22.651-6.294 6.26-2.37 8.941-4.81 13.339-13.466 22.902-45.378 58.123-99.316 99.027-156.872 1.194-1.595.363-2.828-1.941-2.963zM625.914 349.554c1.663-2.385 1.838-3.927 1.784-4.945-.053-1.019-.415-3.042-.709-3.793-.282-.496-1.046-.456-1.528.08-5.778 6.687-13.178 11.67-20.684 14.617 2.75-15.72 10.313-32.204 19.859-44.962 1.675-2.13 1.542-4.676.711-5.909-3.537-4.156-12.582-11.088-17.822-13.622-2.627-1.395-5.428-1.248-7.438-.632-4.368-5.389-11.256-10.135-17.448-11.342-5.669-.979-10.226-.229-15.734 1.846-17.278 6.523-33.953 19.655-45.645 35.333-7.229 9.55-11.075 18.113-12.253 25.456-14.862 15.025-32.103 23.6-47.437 24.403-3.819.2-7.666-.109-10.775-.968-.415-3.042-.32-6.112.016-9.448 16.795-5.988 31.23-13.129 40.346-19.479 15.765-11.04 20.698-19.215 20.378-25.327-.307-5.857-3.857-10.268-9.713-14.812-7.691-10.321-13.159-12.334-20.034-11.974-17.317.907-41.473 17.495-54.746 37.087-10.176 15.344-12.927 31.064-8.653 39.522 4.287 8.714 12.354 16.462 20.194 19.881 4.449 2.066 9.595 2.816 16.216 2.47 17.721-.929 38.562-13.033 54.69-29.952.623 2.195 1.561 4.201 2.784 6.001 3.323 4.932 6.552 8.083 11.792 10.616 10.386 8.139 16.001 8.1 22.221 4.964 6.971-3.429 15.724-11.804 25.538-24.32-1.531 14.636 3.291 23.832 14.751 23.23 17.059-.892 33.427-15.03 39.339-24.021zm-130.342-46.027c.896 7.357-2.322 14.166-13.1 22.902-5.857 5.159-16.756 11.602-27.721 16.774 7.739-18.024 25.233-35.029 40.821-39.676zm83.774 19.868c-11.383 16.685-24.547 28.61-37.24 34.894-1.523-19.327 22.446-49.184 50.487-59.847-4.237 6.861-9.117 16.054-13.247 24.953zM916.92 328.429c-.282-.496-1.046-.456-1.528.08-11.838 12.878-21.046 17.445-29.142 18.892-.575-6.099 3.367-18.562 17.688-42.551 54.462-91.207 60.684-104.045 60.136-114.486-.427-8.149-8.012-11.582-16.361-14.975-2.345-.898-3.592-.322-4.771 1.527-17.051 27.019-37.529 60.781-65.893 109.561-8.431 7.532-18.019 12.86-30.763 14.5.147-2.05.295-4.101.188-6.138-.48-9.168-4.19-16.633-11.214-19.074-3.577-4.919-13.775-9.493-22.179-9.052-15.069.79-32.746 14.48-44.884 29.702-6.348 3.457-13.237 5.97-20.297 7.932.134-2.306.269-4.611.148-6.902-.36-6.877-4.272-13.31-10.624-17.573-3.243-3.405-9.26-6.154-16.391-5.781-7.13.374-15.226 1.82-22.986 4.779-1.97-3.471-7.21-6.005-15.01-8.66-2.6-.886-4.584.24-6.501 2.638-4.772 6.379-12.536 19.043-27.753 45.376-24.35 42.133-44.422 83.021-49.357 96.047-4.479 11.98-6.599 20.264-.729 25.062 3.738 3.124 11.458 4.252 17.128 5.23 3.859.564 5.869-.052 7.197-3.951 3.742-11.433 17.178-37.671 41.554-84.147 5.44 6.354 11.563 11.141 21.241 10.633 13.751-.721 32.759-13.207 45.228-28.673 6.957-8.535 11.878-16.965 14.521-25.019 4.932-1.419 9.764-3.029 14.373-4.884-10.872 19.473-7.231 36.149 3.651 46.838 7.25 6.771 14.607 10.726 25.558 10.151 19.608-1.027 37.464-16.008 48.58-37.784 2.548-4.986 4.813-10.467 6.316-15.908 8.643-1.215 16.525-4.481 23.374-8.728l-2.188 3.788c-8.192 14.218-13.007 29.537-12.5 39.214.44 8.403 3.978 12.559 8.762 16.139 5.307 3.808 11.056 6.315 17.423 5.982 11.714-.614 26.138-12.862 37.239-30.042 1.662-2.386 1.837-3.926 1.784-4.944-.068-1.274-.71-3.794-1.018-4.799zm-245.371 14.903l7.468-13.415c6.997-2.92 18.604-5.57 31.244-8.021-10.725 9.754-25.081 18.422-38.712 21.436zm50.053-34.032c-12.92 1.954-24.594 3.332-34.445 5.381 2.104-3.686 4.209-7.371 6.314-11.057 14.048-9.674 26.031-14.897 36.125-17.215 1.11 6.581-1.545 14.381-7.994 22.891zm66.088 38.159c-1.66-7.318 1.196-16.15 6.345-25.103 5.833-10.52 12.764-19.564 19.548-26.56.36 6.875 5.062 13.779 15.892 15.766-8.89 15.532-24.95 30.673-41.785 35.897zm46.572-46.872c-6.982-1.678-9.769-6.129-10.049-11.476-.054-1.02.16-1.796.134-2.306 2.708-1.93 5.201-3.081 7.453-3.965 2.332.644 3.752 3.377 3.938 6.942.174 3.312-.403 6.917-1.476 10.805zM994.778 240.336c5.348-.28 9.142-.99 13.323-4.019 2.212-1.647 6.569-6.217 12.105-12.635 2.869-3.726 2.978-6.54 1.034-9.503-2.505-3.954-8.066-7.748-14.566-9.961-1.3-.443-1.796-.161-2.493 1.152-4.196 7.625-12.188 20.812-18.153 28.786-1.435 1.862-1.354 3.39-.283 4.356 1.341 1.206 6.486 1.958 9.033 1.824zM1091.313 255.195c4.021-1.233 5.495-2.332 6.461-3.404 1.18-1.849 1.528-4.931 1.462-6.206-.066-1.272-.844-1.486-4.154-1.313-4.316.481-10.669 1.069-18.523 2.247 8.661-15.009 13.542-24.202 13.222-30.314-.28-5.348-4.287-8.713-10.559-11.448-6.272-2.736-10.936-4.022-12.973-3.916-1.783.093-2.48 1.406-5.698 8.214-5.056 10.735-15.179 27.097-25.556 43.472-7.345 1.152-14.436 2.289-20.762 3.387-3.283.683-4.53 1.26-4.437 3.042.093 1.782 1.124 6.836 2.25 8.819 1.151 2.493 4.529 3.593 11.378 2.724-7.32 11.364-13.931 21.669-18.141 29.039l-.014.026c-20.599 30.681-35.887 40.925-47.774 43.081 1.29-14.367 19.766-41.894 31.147-58.577 8.045-12.167 6.626-19.753.086-22.73-3.404-1.609-11.124-2.736-18.133-4.923-3.364-.845-4.088-.042-6.85 5.721-3.205 7.063-11.639 21.549-24.671 40.874-13.983 20.65-17.202 32.311-11.602 41.721 1.7 3.23 5.185 6.367 9.688 9.45 4.489 2.829 10.238 5.337 15.841 5.043 12.873-.675 29.767-17.452 42.407-33.949-.765 5.876.143 10.193 2.187 12.716 7.382 9.316 16.401 15.737 26.587 15.203 16.044-.841 32.063-16.746 38.445-26.528 1.662-2.386 1.837-3.927 1.784-4.945-.054-1.019-.415-3.043-.71-3.793-.281-.496-1.046-.456-1.528.08-9.21 9.419-21.14 15.662-29.798 16.116-1.528.08-3.068-.094-4.355-.282 6.974-17.984 25.731-49.866 39.38-72.032 9.329-2.276 17.882-4.768 23.913-6.615zM1320.064 308.065c-.094-1.783-.898-2.508-2.372-1.408-13.74 10.68-24.759 14.832-29.597 15.086-1.02.053-1.796-.163-2.573-.377 7.268-17.234 18.462-32.631 23.894-45.939 4.747-11.74 3.381-18.307-1.898-21.605-6.084-4.022-10.521-5.832-13.576-5.672-2.801.146-6.299 1.606-11.474 5.197-5.67 3.873-13.472 10.92-22.923 20.608 2.937-7.304 4.465-12.235 4.318-15.037-.24-4.584-2.103-6.019-9.232-10.497-4.489-2.83-9.702-4.854-12.504-4.707-5.044.265-10.233 7.567-34.958 44.219l-.001.001-.009.014-.706 1.046-.106.16c-16.534 24.242-27.251 33.708-38.296 36.836.39-7.17 4.413-18.105 8.945-29.069 7.282-16.979 9.053-22.179 8.879-25.49-.146-2.801-2.854-5.724-8.857-8.218-7.827-3.165-12.477-4.197-14.77-4.077-2.801.146-4.021 1.231-5.441 3.349-4.436-6.663-11.162-13.205-18.802-12.804-14.515.761-39.046 15.07-54.464 37.582-13.286 19.338-13.115 32.353-7.005 41.735 6.672 10.375 17.299 18.245 27.484 17.711 8.149-.427 18.954-8.654 31.704-28.474-3.194 21.872 5.824 28.295 17.538 27.681 12.053-.632 24.795-9.096 36.425-22.048-.138 1.172-.184 2.271-.13 3.293.28 5.347 4.045 8.98 9.204 9.986 6.192 1.208 12.156 2.938 15.467 2.764 2.547-.133 5.482-2.585 9.974-9.46 19.589-30.647 36.587-47.37 49.415-55.959-3.071 9.609-13.14 22.138-20.1 40.378-1.998 5.723-1.678 11.835 2.181 17.251 3.31 4.678 11.217 9.371 19.365 8.943 12.224-.641 30.735-12.847 42.411-23.929 2.427-2.422 2.751-6.015 2.59-9.07zm-213.184 20.111c-3.48-17.692 20.624-49.854 45.984-58.077-17.029 35.621-31.24 51.942-45.984 58.077z"/>
</svg>
