<svg xmlns="http://www.w3.org/2000/svg" viewBox="0 0 1094.25 277.64">
  <title>Asset 1</title>
  <g>
    <path d="M4.29,243.2a683.44,683.44,0,0,1,40-70.33c26-40.33,62-97.33,69.33-105s12.67-14,18-12,7.33,7.33,7,13-.33,16-2,22.67-3,15-4.33,21.67S128,131.87,127,137.87s-3.33,16.67-4.67,23.67-5.67,17.88-2.33,20.61,6,2.06,10.67-3.61,27.67-40.67,48.33-69,45.73-63.92,57-80.29S256.62,3.54,256.62,3.54" style="fill: none;stroke: #ff0606;stroke-miterlimit: 10;stroke-width: 10px"/>
    <path d="M194.29,177.2c17-3,34.25-7.67,47-15.33s25.37-15.33,25.37-24.67-1.33-19.33-10-21.33S214,120.54,204,150.54s-4.33,38.67,2.33,43,22.33,6,40.67-4.33,21.67-13,34.67-27S297,140.92,314.29,129.9,341,113,350,114.61s11,2.93,11,2.93-29-14.95-57.67,23.33-16,46.33-8.67,49,6.67,2.22,21.67-7.73,36.33-24.61,44.67-35.61a76.78,76.78,0,0,0,11.67-23.05s-11.58,2.59-13.56,15.05S349,176.75,352,182.14s9.67,7.73,19,2.06,24.67-22,26-25.67" style="fill: none;stroke: #ff0606;stroke-miterlimit: 10;stroke-width: 10px"/>
    <path d="M459,89.87s-50,86-62,113.5-29,72.5-29,72.5" style="fill: none;stroke: #ff0606;stroke-miterlimit: 10;stroke-width: 10px"/>
    <path d="M429.45,123.37S460,107.1,479,105.74s18-2.87,20,15.13-11.5,35.5-27,45.5c0,0-20.5,17.5-35.5,10s-20.5-17-7-25.5,24-6.5,56-13.5a273,273,0,0,0,71-26.5c12.5-7,34-7.93,34-7.93s-38-7.3-52,29.82.5,52.16,9.5,49.39,38-11.48,46-28.38,12.35-32.84,8.51-39.16S578,97.87,583,109.87s9.5,24.5,32,18,46.5-17.5,69.5-57,34-60,30.5-61-82.5,127-82.5,145.76-.84,36.09,18.5,27.24,34.5-37,34.5-37" style="fill: none;stroke: #ff0606;stroke-miterlimit: 10;stroke-width: 10px"/>
    <path d="M746,73.87s-14.5,39.23-21.5,49.61-32,41.91-19.5,46.15,21.5,7.24,38.5-9.76,70-78,80-93.27,24-35.73,17-29.23-47.89,70.73-53.95,86.11-25.05,33.39-8.05,38.39,23,3.5,33-4,19-21,19-21" style="fill: none;stroke: #ff0606;stroke-miterlimit: 10;stroke-width: 10px"/>
    <path d="M784,26.92c-6.5,7.95-30.5,42.45-30.5,42.45" style="fill: none;stroke: #ff0606;stroke-miterlimit: 10;stroke-width: 10px"/>
    <line x1="768.7" y1="86.87" x2="871.45" y2="69.37" style="fill: none;stroke: #ff0606;stroke-miterlimit: 10;stroke-width: 10px"/>
    <path d="M930.45,104.53c-5-6.66-6-18.66-25.5-17.66s-50,18.5-52.5,40.5-.51,37.5,10.74,36.5,27.26-17.67,47.26-38.51,33.09-35,28-38.49-32.5,55-26,65.5,14.2,10,27.1,1,77.9-67.5,80.4-75.25,1-30.25-19,8.75-32.5,64-32.5,64,39.5-38.5,56-51,28-21,33.5-13-15.5,33.27-20.5,45.89-13,25.11,2.5,22.61,32.94-12.59,38.5-18.5,12.5-12,12.5-12" style="fill: none;stroke: #ff0606;stroke-miterlimit: 10;stroke-width: 10px"/>
  </g>
</svg>
