<?xml version="1.0" encoding="UTF-8"?>
<svg width="496px" height="450px" viewBox="0 0 496 450" version="1.1" xmlns="http://www.w3.org/2000/svg" xmlns:xlink="http://www.w3.org/1999/xlink">
    <!-- Generator: Sketch 44.1 (41455) - http://www.bohemiancoding.com/sketch -->
    <title>Gem</title>
    <desc>Created with Sketch.</desc>
    <defs></defs>
    <g id="Page-2" stroke="none" stroke-width="1" fill="none" fill-rule="evenodd">
        <g id="Artboard" transform="translate(-264.000000, -139.000000)" stroke="#FFFFFF" stroke-width="4">
            <g id="Gem" transform="translate(266.000000, 141.000000)">
                <path d="M384.149981,14.9082714 L246.26394,0.0284827373 L246.26394,0.0284827373 C246.20903,0.0225572324 246.159714,0.0622667513 246.153788,0.11717643 C246.150701,0.145788389 246.160089,0.174343609 246.179553,0.195540877 L391.813039,158.796392 L391.813039,158.796392 C391.850393,158.837072 391.913652,158.839768 391.954332,158.802414 C391.976205,158.782329 391.98802,158.753562 391.986579,158.723901 L385.041511,15.8539453 L385.041511,15.8539453 C385.017609,15.3622511 384.639415,14.9610879 384.149981,14.9082714 Z" id="Path-2"></path>
                <path d="M239.914327,14.9908208 L100.263657,0.028248975 L100.263657,0.028248975 C100.208743,0.0223653131 100.159457,0.0621123998 100.153573,0.117026578 C100.15051,0.14561445 100.1599,0.174137574 100.179346,0.195315262 L245.815045,158.798576 L245.815045,158.798576 C245.852399,158.839256 245.915658,158.841952 245.956338,158.804598 C245.978033,158.784677 245.989842,158.756206 245.988616,158.726778 L240.003587,15.0860886 L240.003587,15.0860886 C240.001526,15.0366125 239.963564,14.9960962 239.914327,14.9908208 Z" id="Path-2" transform="translate(173.000000, 79.500000) scale(-1, 1) translate(-173.000000, -79.500000) "></path>
                <path d="M385.196114,15.2639292 L491.881377,158.840357 L491.881377,158.840357 C491.914316,158.884687 491.905083,158.947327 491.860753,158.980267 C491.843508,158.993081 491.822594,159 491.80111,159 L392,159 L385.015965,15.3284272 L385.015965,15.3284272 C385.013284,15.2732639 385.055829,15.2263713 385.110992,15.2236898 C385.144301,15.2220706 385.176224,15.2371618 385.196114,15.2639292 Z" id="Path-3"></path>
                <path d="M0.194075961,15.2636504 L105.882751,158.840718 L105.882751,158.840718 C105.915491,158.885196 105.905977,158.947793 105.861499,158.980534 C105.84432,158.993179 105.823548,159 105.802217,159 L6,159 L0.013628965,15.3270952 L0.013628965,15.3270952 C0.0113297735,15.2719146 0.0541986219,15.225318 0.109379218,15.2230188 C0.142611881,15.2216341 0.174357965,15.2368637 0.194075961,15.2636504 Z" id="Path-3" transform="translate(53.000000, 87.000000) scale(-1, 1) translate(-53.000000, -87.000000) "></path>
                <path d="M246.54422,445.365076 L491.858504,159.165079 L491.858504,159.165079 C491.894446,159.123147 491.88959,159.060017 491.847657,159.024074 C491.829533,159.008539 491.806449,159 491.782578,159 L392,159 L246.379165,445.254656 L246.379165,445.254656 C246.354123,445.303881 246.373728,445.364086 246.422953,445.389127 C246.464083,445.41005 246.514189,445.400113 246.54422,445.365076 Z" id="Path-5"></path>
                <path d="M0.544220347,445.365076 L245.858504,159.165079 L245.858504,159.165079 C245.894446,159.123147 245.88959,159.060017 245.847657,159.024074 C245.829533,159.008539 245.806449,159 245.782578,159 L146,159 L0.379164682,445.254656 L0.379164682,445.254656 C0.35412332,445.303881 0.373728148,445.364086 0.422953291,445.389127 C0.464083056,445.41005 0.51418905,445.400113 0.544220347,445.365076 Z" id="Path-5" transform="translate(123.000000, 302.500000) scale(-1, 1) translate(-123.000000, -302.500000) "></path>
                <path d="M100,159 L392,159 L246.08913,445.824792 L246.08913,445.824792 C246.064089,445.874018 246.003884,445.893622 245.954659,445.868581 C245.935797,445.858986 245.920465,445.843654 245.91087,445.824792 L100,159 Z" id="Path-4"></path>
                <path d="M246.736577,0.802162609 L392,159 L100.227587,159 L100.227587,159 C100.172359,159 100.127587,158.955228 100.127587,158.9 C100.127587,158.874951 100.136988,158.850815 100.153929,158.832365 L245.263423,0.802162609 L245.263423,0.802162609 C245.636963,0.395362372 246.269553,0.368399493 246.676354,0.741939333 C246.697274,0.761149406 246.717367,0.78124205 246.736577,0.802162609 Z" id="Path"></path>
            </g>
        </g>
    </g>
</svg>