<?xml version="1.0" encoding="UTF-8"?>
<svg width="1095px" height="278px" viewBox="0 0 1095 278" version="1.1" xmlns="http://www.w3.org/2000/svg" xmlns:xlink="http://www.w3.org/1999/xlink">
    <!-- Generator: Sketch 45.2 (43514) - http://www.bohemiancoding.com/sketch -->
    <title>Group</title>
    <desc>Created with Sketch.</desc>
    <defs></defs>
    <g id="Page-1" stroke="none" stroke-width="1" fill="none" fill-rule="evenodd">
        <g transform="translate(4.000000, 3.000000)" id="Group" stroke-width="10" stroke="#FF0606">
            <g>
                <path d="M0.2876,240.202 C1.2876,238.536 14.2876,210.202 40.2876,169.869 C66.2876,129.536 102.2876,72.536 109.6206,64.869 C116.9546,57.202 122.2876,50.869 127.6206,52.869 C132.9546,54.869 134.9546,60.202 134.6206,65.869 C134.2876,71.536 134.2876,81.869 132.6206,88.536 C130.9546,95.202 129.6206,103.536 128.2876,110.202 C126.9546,116.869 123.9546,128.869 122.9546,134.869 C121.9546,140.869 119.6206,151.536 118.2876,158.536 C116.9546,165.536 112.6206,176.419 115.9546,179.143 C119.2876,181.869 121.9546,181.202 126.6206,175.536 C131.2876,169.869 154.2876,134.869 174.9546,106.536 C195.6206,78.202 220.6846,42.614 231.9866,26.242 C243.2876,9.869 252.6206,0.536 252.6206,0.536" id="Stroke-1"></path>
                <path d="M190.2876,174.202 C207.2876,171.202 224.5416,166.536 237.2476,158.869 C249.9546,151.202 262.6206,143.536 262.6206,134.202 C262.6206,124.869 261.2876,114.869 252.6206,112.869 C243.9546,110.869 209.9546,117.536 199.9546,147.536 C189.9546,177.536 195.6206,186.202 202.2876,190.536 C208.9546,194.869 224.6206,196.536 242.9546,186.202 C261.2876,175.869 264.6206,173.202 277.6206,159.202 C290.6206,145.202 292.9546,137.924 310.2876,126.896 C327.6206,115.869 336.9546,110.017 345.9546,111.609 C354.9546,113.202 356.9546,114.536 356.9546,114.536 C356.9546,114.536 327.9546,99.587 299.2876,137.869 C270.6206,176.151 283.2876,184.202 290.6206,186.869 C297.9546,189.536 297.2876,189.085 312.2876,179.143 C327.2876,169.202 348.6206,154.536 356.9546,143.536 C365.2876,132.536 368.6206,120.483 368.6206,120.483 C368.6206,120.483 357.0426,123.076 355.0626,135.536 C353.0826,147.995 344.9546,173.752 347.9546,179.143 C350.9546,184.536 357.6206,186.869 366.9546,181.202 C376.2876,175.536 391.6206,159.202 392.9546,155.536" id="Stroke-3"></path>
                <path d="M454.9541,86.869 C454.9541,86.869 404.9541,172.869 392.9541,200.369 C380.9541,227.869 363.9541,272.869 363.9541,272.869" id="Stroke-5"></path>
                <path d="M425.4541,120.369 C425.4541,120.369 455.9541,104.103 474.9541,102.736 C493.9541,101.369 492.9541,99.869 494.9541,117.869 C496.9541,135.869 483.4541,153.369 467.9541,163.369 C467.9541,163.369 447.4541,180.869 432.4541,173.369 C417.4541,165.869 411.9541,156.369 425.4541,147.869 C438.9541,139.369 449.4541,141.369 481.4541,134.369 C513.4541,127.369 539.9541,114.869 552.4541,107.869 C564.9541,100.869 586.4541,99.937 586.4541,99.937 C586.4541,99.937 548.4541,92.64 534.4541,129.754 C520.4541,166.869 534.9541,181.919 543.9541,179.143 C552.9541,176.369 581.9271,167.661 589.9401,150.764 C597.9541,133.869 602.2891,117.927 598.4541,111.609 C594.6191,105.292 573.9541,94.869 578.9541,106.869 C583.9541,118.869 588.4541,131.369 610.9541,124.869 C633.4541,118.369 657.4541,107.369 680.4541,67.869 C703.4541,28.369 714.4541,7.869 710.9541,6.869 C707.4541,5.869 628.4541,133.897 628.4541,152.634 C628.4541,171.369 627.6171,188.722 646.9541,179.869 C666.2911,171.016 681.4541,142.869 681.4541,142.869" id="Stroke-7"></path>
                <path d="M741.9541,70.869 C741.9541,70.869 727.4541,110.098 720.4541,120.483 C713.4541,130.869 688.4541,162.392 700.9541,166.631 C713.4541,170.869 722.4541,173.869 739.4541,156.869 C756.4541,139.869 809.4541,78.837 819.4541,63.602 C829.4541,48.369 843.4541,27.869 836.4541,34.369 C829.4541,40.869 788.5611,105.098 782.5081,120.483 C776.4541,135.869 757.4541,153.869 774.4541,158.869 C791.4541,163.869 797.4541,162.369 807.4541,154.869 C817.4541,147.369 826.4541,133.869 826.4541,133.869" id="Stroke-9"></path>
                <path d="M926.4541,101.5292 C921.4541,94.8692 920.4541,82.8692 900.9541,83.8692 C881.4541,84.8692 850.9541,102.3692 848.4541,124.3692 C845.9541,146.3692 847.9411,161.8692 859.1981,160.8692 C870.4541,159.8692 886.4541,143.1952 906.4541,122.3622 C926.4541,101.5292 939.5411,87.3712 934.4541,83.8692 C929.3671,80.3672 901.9541,138.8692 908.4541,149.3692 C914.9541,159.8692 922.6561,159.3692 935.5551,150.3692 C948.4541,141.3692 1013.4541,82.8692 1015.9541,75.1192 C1018.4541,67.3692 1016.9541,44.8692 996.9541,83.8692 C976.9541,122.8692 964.4541,147.8692 964.4541,147.8692 C964.4541,147.8692 1003.9541,109.3692 1020.4541,96.8692 C1036.9541,84.3692 1048.4541,75.8692 1053.9541,83.8692 C1059.4541,91.8692 1038.4541,117.1392 1033.4541,129.7542 C1028.4541,142.3692 1020.4541,154.8692 1035.9541,152.3692 C1051.4541,149.8692 1068.8911,139.7772 1074.4541,133.8692 C1080.0171,127.9612 1086.9541,121.8692 1086.9541,121.8692" id="Stroke-11"></path>
                <path d="M779.9541,23.9188 C773.4541,31.8688 749.4541,66.3688 749.4541,66.3688" id="Stroke-13"></path>
                <path d="M764.7041,83.869 L867.4541,66.369" id="Stroke-15"></path>
            </g>
        </g>
    </g>
</svg>