<svg xmlns="http://www.w3.org/2000/svg" viewBox="0 0 1075.36 269.77">
  <title>Asset 2</title>
  <g>
    <path d="M383,169.64a17.37,17.37,0,0,0-.71-3.79c-.28-.5-1-.46-1.53.08A53.51,53.51,0,0,1,360,180.54c2.75-15.72,10.31-32.2,19.86-45a5.31,5.31,0,0,0,.71-5.91c-3.54-4.16-12.58-11.09-17.82-13.62a9.83,9.83,0,0,0-7.44-.63C351,110,344.09,105.28,337.9,104.07c-5.67-1-10.23-.23-15.73,1.85-17.28,6.52-34,19.66-45.65,35.33-7.23,9.55-11.08,18.11-12.25,25.46-14.86,15-32.1,23.6-47.44,24.4a35,35,0,0,1-10.77-1,39.76,39.76,0,0,1,0-9.45c16.79-6,31.23-13.13,40.35-19.48,15.77-11,20.7-19.22,20.38-25.33-.31-5.86-3.86-10.27-9.71-14.81-7.69-10.32-13.16-12.33-20-12-17.32.91-41.47,17.49-54.75,37.09-10.18,15.34-12.93,31.06-8.65,39.52,4.29,8.71,12.35,16.46,20.19,19.88,4.45,2.07,9.59,2.82,16.22,2.47,17.72-.93,38.56-13,54.69-30a20.66,20.66,0,0,0,2.78,6c3.32,4.93,6.55,8.08,11.79,10.62,10.39,8.14,16,8.1,22.22,5,7-3.43,15.72-11.8,25.54-24.32-1.53,14.64,3.29,23.83,14.75,23.23,17.06-.89,33.43-15,39.34-24h0C382.84,172.2,383,170.65,383,169.64ZM250.83,128.55c.9,7.36-2.32,14.17-13.1,22.9-5.86,5.16-16.76,11.6-27.72,16.77C217.75,150.21,235.25,133.2,250.83,128.55Zm83.77,19.87c-11.38,16.68-24.55,28.61-37.24,34.89-1.52-19.33,22.45-49.18,50.49-59.85A253,253,0,0,0,334.61,148.42Z" style="stroke: #fff;stroke-miterlimit: 10;stroke-width: 0.10000000149011612px"/>
    <path d="M672.18,153.46h0c-.28-.5-1-.46-1.53.08-11.84,12.88-21,17.45-29.14,18.89-.58-6.1,3.37-18.56,17.69-42.55,54.46-91.21,60.68-104,60.14-114.49-.43-8.15-8-11.58-16.36-15-2.34-.9-3.59-.32-4.77,1.53-17.05,27-37.53,60.78-65.89,109.56-8.43,7.53-18,12.86-30.76,14.5a49.64,49.64,0,0,0,.19-6.14c-.48-9.17-4.19-16.63-11.21-19.07-3.58-4.92-13.78-9.49-22.18-9.05-15.07.79-32.75,14.48-44.88,29.7a96.16,96.16,0,0,1-20.3,7.93,62.46,62.46,0,0,0,.15-6.9c-.36-6.88-4.27-13.31-10.62-17.57-3.24-3.4-9.26-6.15-16.39-5.78a76.82,76.82,0,0,0-23,4.78c-2-3.47-7.21-6-15-8.66-2.6-.89-4.58.24-6.5,2.64-4.77,6.38-12.54,19-27.75,45.38-24.35,42.13-44.42,83-49.36,96-4.48,12-6.6,20.26-.73,25.06,3.74,3.12,11.46,4.25,17.13,5.23,3.86.56,5.87-.05,7.2-4,3.74-11.43,17.18-37.67,41.55-84.15,5.44,6.35,11.56,11.14,21.24,10.63,13.75-.72,32.76-13.21,45.23-28.67,7-8.54,11.88-17,14.52-25a148.74,148.74,0,0,0,14.37-4.88C504.33,153,508,169.7,518.85,180.39c7.25,6.77,14.61,10.73,25.56,10.15,19.61-1,37.46-16,48.58-37.78a85.94,85.94,0,0,0,6.32-15.91,60.46,60.46,0,0,0,23.37-8.73l-2.19,3.79c-8.19,14.22-13,29.54-12.5,39.21.44,8.4,4,12.56,8.76,16.14,5.31,3.81,11.06,6.32,17.42,6,11.71-.61,26.14-12.86,37.24-30,1.66-2.39,1.84-3.93,1.78-4.94A27.63,27.63,0,0,0,672.18,153.46Zm-245.37,14.9h0l7.47-13.41c7-2.92,18.6-5.57,31.24-8C454.8,156.68,440.44,165.35,426.81,168.36Zm50.05-34c-12.92,2-24.59,3.33-34.45,5.38l6.31-11.06c14-9.67,26-14.9,36.13-17.21C486,118,483.31,125.82,476.86,134.33ZM543,172.49c-1.66-7.32,1.2-16.15,6.34-25.1a127.19,127.19,0,0,1,19.55-26.56c.36,6.88,5.06,13.78,15.89,15.77C575.85,152.12,559.79,167.26,543,172.49Zm46.57-46.87c-7-1.68-9.77-6.13-10-11.48-.05-1,.16-1.8.13-2.31a33.42,33.42,0,0,1,7.45-4c2.33.64,3.75,3.38,3.94,6.94a34.38,34.38,0,0,1-1.48,10.8Z"/>
    <path d="M750,65.36c5.35-.28,9.14-1,13.32-4,2.21-1.65,6.57-6.22,12.1-12.63,2.87-3.73,3-6.54,1-9.5-2.51-4-8.07-7.75-14.57-10-1.3-.44-1.8-.16-2.49,1.15a294.68,294.68,0,0,1-18.15,28.79c-1.43,1.86-1.35,3.39-.28,4.36C742.35,64.75,747.49,65.5,750,65.36Z"/>
    <path d="M846.57,80.22c4-1.23,5.49-2.33,6.46-3.4a12.62,12.62,0,0,0,1.46-6.21c-.07-1.27-.84-1.49-4.15-1.31-4.32.48-10.67,1.07-18.52,2.25,8.66-15,13.54-24.2,13.22-30.31-.28-5.35-4.29-8.71-10.56-11.45s-10.94-4-13-3.92c-1.78.09-2.48,1.41-5.7,8.21-5.06,10.74-15.18,27.1-25.56,43.47-7.34,1.15-14.44,2.29-20.76,3.39-3.28.68-4.53,1.26-4.44,3s1.12,6.84,2.25,8.82c1.15,2.49,4.53,3.59,11.38,2.72-7.32,11.36-13.93,21.67-18.14,29v0c-20.6,30.68-35.89,40.92-47.77,43.08,1.29-14.37,19.77-41.89,31.15-58.58,8-12.17,6.63-19.75.09-22.73-3.4-1.61-11.12-2.74-18.13-4.92-3.36-.85-4.09,0-6.85,5.72-3.21,7.06-11.64,21.55-24.67,40.87-14,20.65-17.2,32.31-11.6,41.72,1.7,3.23,5.18,6.37,9.69,9.45,4.49,2.83,10.24,5.34,15.84,5,12.87-.67,29.77-17.45,42.41-33.95-.77,5.88.14,10.19,2.19,12.72,7.38,9.32,16.4,15.74,26.59,15.2,16-.84,32.06-16.75,38.44-26.53,1.66-2.39,1.84-3.93,1.78-4.95A17.36,17.36,0,0,0,819,143c-.28-.5-1-.46-1.53.08-9.21,9.42-21.14,15.66-29.8,16.12a22.45,22.45,0,0,1-4.35-.28c7-18,25.73-49.87,39.38-72,9.33-2.28,17.88-4.77,23.91-6.62Z"/>
    <path d="M1075.33,133.09h0c-.09-1.78-.9-2.51-2.37-1.41-13.74,10.68-24.76,14.83-29.6,15.09a7.56,7.56,0,0,1-2.57-.38c7.27-17.23,18.46-32.63,23.89-45.94,4.75-11.74,3.38-18.31-1.9-21.6-6.08-4-10.52-5.83-13.58-5.67-2.8.15-6.3,1.61-11.47,5.2-5.67,3.87-13.47,10.92-22.92,20.61,2.94-7.3,4.46-12.23,4.32-15-.24-4.58-2.1-6-9.23-10.5-4.49-2.83-9.7-4.85-12.5-4.71-5,.27-10.23,7.57-35,44.22h0l-.71,1-.11.16c-16.53,24.24-27.25,33.71-38.3,36.84.39-7.17,4.41-18.1,8.94-29.07,7.28-17,9.05-22.18,8.88-25.49-.15-2.8-2.85-5.72-8.86-8.22-7.83-3.16-12.48-4.2-14.77-4.08-2.8.15-4,1.23-5.44,3.35-4.44-6.66-11.16-13.21-18.8-12.8-14.52.76-39,15.07-54.46,37.58-13.29,19.34-13.11,32.35-7,41.73,6.67,10.38,17.3,18.24,27.48,17.71,8.15-.43,19-8.65,31.7-28.47-3.19,21.87,5.82,28.3,17.54,27.68,12.05-.63,24.8-9.1,36.43-22a19.49,19.49,0,0,0-.13,3.29c.28,5.35,4,9,9.2,10,6.19,1.21,12.16,2.94,15.47,2.76,2.55-.13,5.48-2.59,10-9.46,19.59-30.65,36.59-47.37,49.42-56-3.07,9.61-13.14,22.14-20.1,40.38a18.32,18.32,0,0,0,2.18,17.25c3.31,4.68,11.22,9.37,19.36,8.94,12.22-.64,30.73-12.85,42.41-23.93C1075.16,139.74,1075.49,136.15,1075.33,133.09ZM862.14,153.2c-3.48-17.69,20.62-49.85,46-58.08C891.1,130.75,876.89,147.07,862.14,153.2Z"/>
    <path d="M3.36,224.88A3.67,3.67,0,0,1,1,224.25a3,3,0,0,1-1-2.37c-.13-2.39,1.66-6.31,3.18-9.17,29.75-55.29,89.9-151.86,113-178.66,3-3.38,5.44-4.59,8.27-4.19a56.24,56.24,0,0,1,18.7,6.52c7,4.18,8.42,10.29,5.66,25.14-2.46,16.6-6.53,38.54-10.83,61.78-1.45,7.81-2.94,15.86-4.4,23.89C158.85,109.17,184.79,76.12,216,37c3.32-4.22,6.33-6.24,13.55-5.51,1.45.09,2.48.6,2.88,1.45a2.37,2.37,0,0,1-.5,2.51c-46.07,64.82-78.44,116.11-99,156.78-4.34,8.55-7,11.25-13.68,13.77-11.66,4.31-18.06,6.08-22.84,6.33-3.48.18-5.81-.53-7.3-2.23-2-2.3-2.42-6.52-1.25-12.9C93.3,164.92,101,124.74,108.54,89.27,82.14,124,53,166.93,21.81,216.76c-3.26,5.06-12.65,7.83-18,8.11Z"/>
  </g>
</svg>
